<?xml version="1.0" standalone="no"?><!DOCTYPE svg PUBLIC "-//W3C//DTD SVG 1.1//EN" "http://www.w3.org/Graphics/SVG/1.1/DTD/svg11.dtd"><svg t="1637502685053" class="icon" viewBox="0 0 1024 1024" version="1.1" xmlns="http://www.w3.org/2000/svg" p-id="7553" xmlns:xlink="http://www.w3.org/1999/xlink" width="64" height="64"><defs><style type="text/css"></style></defs><path d="M57.904 729.904l-6.016-6.016a96 96 0 0 1 0-135.776L594.944 45.056a96 96 0 0 1 135.76 0c70.08 70.096 84.576 91.2 22.624 29.264a96 96 0 0 0-135.76 0L74.512 617.376a94.976 94.976 0 0 0-16.608 112.528z" fill="#FFFFFF" p-id="7554"></path><path d="M57.904 729.904l242.88 242.88c7.664 7.664 16.288 13.76 25.952 18.032a90.512 90.512 0 0 1-37.264-22.72A1361410.4 1361410.4 0 0 1 74.512 753.136a82.272 82.272 0 0 1-16.608-23.232z m0 0a94.976 94.976 0 0 1 16.608-112.528L617.568 74.32a96 96 0 0 1 135.76 0L968.288 289.28a96 96 0 0 1 0 135.76L425.232 968.096a94.832 94.832 0 0 1-98.496 22.72 85.504 85.504 0 0 1-25.952-18.032l-242.88-242.88z" fill="#5AB947" p-id="7555"></path><path d="M719.392 56.368L63.2 712.576l260.208 260.208 656.192-656.192L719.392 56.368z" fill="#5AB947" p-id="7556"></path><path d="M979.6 316.592L323.408 972.784 63.2 712.576 719.392 56.368l260.208 260.224z" fill="#FFD140" p-id="7557"></path><path d="M538.368 214.768L221.584 531.552l282.848 282.832 316.784-316.768-282.848-282.848z" fill="#CBE9EA" p-id="7558"></path><path d="M527.056 203.456l-22.624 610.928 316.784-316.768-31.584-31.584-262.576-262.576z" fill="#C1DEDF" p-id="7559"></path><path d="M792.928 344.88a24 24 0 1 1 33.936 33.92 24 24 0 0 1-33.936-33.92zM702.416 141.232a24 24 0 1 1 33.952 33.952 24 24 0 0 1-33.952-33.952z m-11.312 101.824a24 24 0 1 1 33.936 33.92 24 24 0 0 1-33.936-33.92z m113.136 0a24 24 0 1 1 33.952 33.952 24 24 0 0 1-33.952-33.952z" fill="#FFFFFF" p-id="7560"></path></svg>