<?xml version="1.0" standalone="no"?><!DOCTYPE svg PUBLIC "-//W3C//DTD SVG 1.1//EN" "http://www.w3.org/Graphics/SVG/1.1/DTD/svg11.dtd"><svg t="1637505567479" class="icon" viewBox="0 0 1024 1024" version="1.1" xmlns="http://www.w3.org/2000/svg" p-id="8398" xmlns:xlink="http://www.w3.org/1999/xlink" width="64" height="64"><defs><style type="text/css"></style></defs><path d="M320 64h384c140.8 0 256 115.2 256 256v384c0 140.8-115.2 256-256 256H320c-140.8 0-256-115.2-256-256V320c0-140.8 115.2-256 256-256z" fill="#FAFAFA" p-id="8399"></path><path d="M640 320m-96 0a96 96 0 1 0 192 0 96 96 0 1 0-192 0Z" fill="#FFBE5B" p-id="8400"></path><path d="M640 448c-70.4 0-128-57.6-128-128s57.6-128 128-128 128 57.6 128 128-57.6 128-128 128z m0-192c-38.4 0-64 25.6-64 64s25.6 64 64 64 64-25.6 64-64-25.6-64-64-64z" p-id="8401"></path><path d="M960 736c-19.2 128-121.6 224-256 224H320c-140.8 0-256-115.2-256-256v-51.2l204.8-275.2c25.6-38.4 76.8-32 102.4 0L576 684.8 710.4 512c25.6-32 83.2-32 102.4 6.4l147.2 217.6z" fill="#67C8AE" p-id="8402"></path><path d="M320 416l204.8 307.2c12.8 19.2 32 25.6 51.2 25.6 19.2 0 38.4-6.4 51.2-25.6l134.4-172.8 128 198.4C870.4 832 793.6 896 704 896H320c-108.8 0-192-83.2-192-192v-32l192-256m0-64c-19.2 0-38.4 6.4-51.2 25.6L64 652.8v51.2c0 140.8 115.2 256 256 256h384c128 0 236.8-96 256-224l-140.8-217.6c-12.8-19.2-32-32-51.2-32-19.2 0-38.4 6.4-51.2 25.6L576 684.8 371.2 377.6c-12.8-19.2-32-25.6-51.2-25.6z" p-id="8403"></path><path d="M704 960H320c-140.8 0-256-115.2-256-256V320c0-140.8 115.2-256 256-256h384c140.8 0 256 115.2 256 256v384c0 140.8-115.2 256-256 256zM320 128C211.2 128 128 211.2 128 320v384c0 108.8 83.2 192 192 192h384c108.8 0 192-83.2 192-192V320c0-108.8-83.2-192-192-192H320z" p-id="8404"></path></svg>