<?xml version="1.0" standalone="no"?><!DOCTYPE svg PUBLIC "-//W3C//DTD SVG 1.1//EN" "http://www.w3.org/Graphics/SVG/1.1/DTD/svg11.dtd"><svg t="1637506120677" class="icon" viewBox="0 0 1024 1024" version="1.1" xmlns="http://www.w3.org/2000/svg" p-id="10735" xmlns:xlink="http://www.w3.org/1999/xlink" width="64" height="64"><defs><style type="text/css"></style></defs><path d="M959.986 725.338h-127.998c-11.81 0-21.342-9.562-21.342-21.344s9.532-21.314 21.342-21.314h127.998c11.748 0 21.31 9.534 21.31 21.314s-9.562 21.344-21.31 21.344z" fill="#424953" p-id="10736"></path><path d="M767.992 512c0 117.84-114.622 213.368-256.024 213.368-141.37 0-255.992-95.528-255.992-213.368 0-117.808 114.624-213.336 255.992-213.336 141.404 0 256.024 95.528 256.024 213.336z" fill="#E5E8EC" p-id="10737"></path><path d="M63.984 725.338c-11.312 0-20.75-8.908-21.282-20.314-0.562-11.782 8.5-21.78 20.282-22.344l895.968-42.652c11.782-0.596 21.75 8.532 22.312 20.282 0.562 11.78-8.498 21.78-20.28 22.342L65.014 725.304c-0.342 0.034-0.686 0.034-1.03 0.034z" fill="#F4BE8E" p-id="10738"></path><path d="M511.968 767.99c-314.396 0-341.3-341.298-341.3-341.298H853.3s-26.904 341.298-341.332 341.298z" fill="#FB6D51" p-id="10739"></path><path d="M85.326 853.332h170.65v170.65H85.326zM767.992 853.332h170.65v170.65h-170.65z" fill="#7F4545" p-id="10740"></path><path d="M1023.982 853.332c0 23.466-19.216 42.656-42.686 42.656H42.672c-23.468 0-42.654-19.19-42.654-42.656v-85.342c0-23.466 19.186-42.652 42.654-42.652h938.626c23.468 0 42.686 19.186 42.686 42.652v85.342z" fill="#A85D5D" p-id="10741"></path><path d="M701.21 221.292l0.096 0.156c-0.062-0.062-5.062-6.594-7.22-14.968-2.248-8.688-0.56-15.032 5.626-21.216 33.5-33.656 15.562-74.936 1.346-92.124v-0.032c-0.032 0-0.032-0.032-0.032-0.032-3.94-4.718-9.844-7.718-16.44-7.718-11.78 0-21.342 9.562-21.342 21.344 0 5.156 1.844 9.906 4.938 13.594 0.034 0.06 4.532 5.876 6.718 13.31 2.532 8.718 0.906 15.156-5.438 21.532-33.406 33.53-15.562 75.466-1.466 92.934a21.228 21.228 0 0 0 16.59 7.938c11.782 0 21.344-9.532 21.344-21.31 0-5.094-1.782-9.75-4.748-13.406h0.028zM550.904 50.704c-6.344-23.876-18.626-40.438-19.998-42.248h-0.032a21.206 21.206 0 0 0-16.938-8.438c-11.782 0-21.344 9.562-21.344 21.342 0 4.812 1.626 9.25 4.312 12.812h-0.032c0.094 0.126 9 12.218 13.094 28.654 4.906 19.656 0.968 36.376-12.032 51.062-22.78 25.78-30.03 57.404-20.968 91.434 6.346 23.906 18.594 40.468 19.968 42.28h0.032c3.906 5.094 10.032 8.406 16.968 8.406 11.78 0 21.31-9.532 21.31-21.31 0-4.844-1.592-9.25-4.282-12.812v-0.032c-0.092-0.126-8.968-12.188-13.06-28.626-4.906-19.686-1-36.374 12-51.092 22.784-25.748 30.064-57.372 21.002-91.432zM359.754 93.138l-0.03-0.032-0.032-0.032a21.268 21.268 0 0 0-16.438-7.718c-11.782 0-21.312 9.562-21.312 21.344 0 5.156 1.844 9.906 4.906 13.594 0.032 0.06 4.532 5.876 6.718 13.31 2.562 8.718 0.938 15.156-5.406 21.532-33.404 33.53-15.594 75.466-1.5 92.934a21.28 21.28 0 0 0 16.594 7.938c11.782 0 21.344-9.532 21.344-21.31 0-5.094-1.782-9.75-4.72-13.406l0.096 0.156c-0.032-0.062-5.062-6.594-7.218-14.968-2.25-8.688-0.562-15.032 5.624-21.216 33.498-33.658 15.562-74.938 1.374-92.126z" fill="#CBD0D8" p-id="10742"></path></svg>