<?xml version="1.0" standalone="no"?><!DOCTYPE svg PUBLIC "-//W3C//DTD SVG 1.1//EN" "http://www.w3.org/Graphics/SVG/1.1/DTD/svg11.dtd"><svg t="1639829738074" class="icon" viewBox="0 0 1024 1024" version="1.1" xmlns="http://www.w3.org/2000/svg" p-id="9951" width="150" height="150" xmlns:xlink="http://www.w3.org/1999/xlink"><defs><style type="text/css"></style></defs><path d="M715.5 882.2c-1.6 0-3.3-0.5-4.7-1.5-3.6-2.6-4.4-7.6-1.8-11.2l1.1-1.6c13.4-18.5 31.8-43.8 5.3-86.3-18.9-30.2-16.1-67.1-10.5-92.7 0.9-4.3 5.2-7 9.5-6.1 4.3 0.9 7 5.2 6.1 9.5-5 22.7-7.6 55.2 8.4 80.8 32.3 51.7 8.4 84.6-5.9 104.2l-1.1 1.6c-1.4 2.1-3.9 3.3-6.4 3.3z" fill="#f0a1a8" p-id="9952"></path><path d="M359.2 662c-69.9 0-135.6-32.6-184.8-91.8-48.9-58.8-75.9-136.8-75.9-219.8s26.9-161 75.9-219.8c49.3-59.2 114.9-91.8 184.8-91.8 50.5 0 99.5 17.3 141.7 50 40.8 31.6 73.4 76.1 94.1 128.6l-14.9 5.9C539.6 120.9 452.9 54.8 359.2 54.8c-134.9 0-244.7 132.6-244.7 295.6 0 163 109.8 295.6 244.7 295.6 74.3 0 143.8-40.1 190.5-110.1l13.3 8.9C513.2 619.3 438.9 662 359.2 662z" fill="#f0a1a8" p-id="9953"></path><path d="M714.1 630.7c-54.2 0-105.1-25.3-143.3-71.2-37.8-45.5-58.7-105.8-58.7-169.9s20.8-124.5 58.7-169.9c38.2-45.9 89.1-71.2 143.3-71.2s105.1 25.3 143.3 71.2c37.8 45.5 58.7 105.8 58.7 169.9S895.3 514 857.5 559.5c-38.2 45.9-89.1 71.2-143.4 71.2z m0-466.2c-102.6 0-186 101-186 225.1s83.4 225.1 186 225.1 186-101 186-225.1c0-124.2-83.4-225.1-186-225.1zM401.9 751.1h-70.5c-8 0-15.1-4.1-19.1-11-4-6.9-4-15.1 0-22l35.2-61c4-6.9 11.1-11 19.1-11 8 0 15.1 4.1 19.1 11l35.2 61c4 6.9 4 15.1 0 22-3.9 6.9-11 11-19 11zM366.7 662c-1 0-3.7 0.3-5.2 3l-35.2 61c-1.6 2.7-0.5 5.1 0 6 0.5 0.9 2.1 3 5.2 3H402c3.1 0 4.7-2.1 5.2-3 0.5-0.9 1.6-3.3 0-6L372 665c-1.7-2.7-4.3-3-5.3-3z" fill="#f0a1a8" p-id="9954"></path><path d="M368.4 984c-1.7 0-3.5-0.6-4.9-1.7-3.5-2.7-4.1-7.8-1.4-11.2l1.6-2c18.7-23.8 44.3-56.5 7.3-111.3-25.5-37.7-21.7-84.1-14.1-116.3 1-4.3 5.3-7 9.6-5.9 4.3 1 7 5.3 5.9 9.6-6.9 29.1-10.5 70.7 11.8 103.6 43.6 64.5 11.3 105.6-8 130.2l-1.5 2c-1.6 2-4 3-6.3 3z" fill="#f0a1a8" p-id="9955"></path><path d="M248.3 163.7s-41.6 13.4-47.9 68.9" fill="#f0a1a8" p-id="9956"></path><path d="M200.4 236.6h-0.5c-2.2-0.2-3.8-2.2-3.5-4.4 6.5-57.4 48.9-71.7 50.7-72.3 2.1-0.7 4.4 0.5 5 2.6 0.7 2.1-0.5 4.4-2.6 5-1.6 0.5-39.2 13.5-45.2 65.6-0.2 2-1.9 3.5-3.9 3.5z" p-id="9957" fill="#f0a1a8"></path><path d="M308.1 163.7c-4.8 0.9-67 7.7-85.2 123" fill="#f0a1a8" p-id="9958"></path><path d="M222.9 290.7h-0.6c-2.2-0.3-3.7-2.4-3.3-4.6 7.6-47.9 23.4-83.3 47.2-105.3 8.6-7.9 22.6-18 40.7-21 0.2 0 0.4-0.1 0.5-0.1 2.2-0.4 4.3 1 4.7 3.2 0.4 2.2-1 4.3-3.2 4.7-0.2 0-0.4 0.1-0.6 0.1-16.1 2.6-28.8 11.8-36.6 18.9-22.4 20.7-37.5 54.6-44.8 100.7-0.4 2-2.1 3.4-4 3.4z" p-id="9959" fill="#f0a1a8"></path><path d="M733.3 691.9h-38.4c-8 0-15.1-4.1-19.1-11-4-6.9-4-15.1 0-22l19.2-33.2c4-6.9 11.1-11 19.1-11s15.1 4.1 19.1 11l19.2 33.2c4 6.9 4 15.1 0 22s-11.1 11-19.1 11z m-19.2-61.2c-1 0-3.7 0.3-5.2 3l-19.2 33.2c-1.6 2.7-0.5 5.1 0 6 0.5 0.9 2.1 3 5.2 3h38.4c3.1 0 4.7-2.1 5.2-3 0.5-0.9 1.6-3.3 0-6l-19.2-33.2c-1.5-2.7-4.1-3-5.2-3z" fill="#f0a1a8" p-id="9960"></path><path d="M630.5 253.1s-30.8 8.4-37.3 48.7" fill="#f0a1a8" p-id="9961"></path><path d="M593.2 305.8c-0.2 0-0.4 0-0.6-0.1-2.2-0.4-3.7-2.4-3.3-4.6 6.8-42.3 38.8-51.5 40.2-51.9 2.1-0.6 4.3 0.7 4.9 2.8 0.6 2.1-0.7 4.3-2.8 4.9-1.2 0.3-28.4 8.4-34.4 45.4-0.3 2.1-2 3.5-4 3.5z" p-id="9962" fill="#f0a1a8"></path><path d="M677.4 258.1s-50 5.5-68.7 85" fill="#f0a1a8" p-id="9963"></path><path d="M608.7 347.1c-0.3 0-0.6 0-0.9-0.1-2.2-0.5-3.5-2.7-3-4.8 9.9-42.2 28.8-63.9 42.8-74.6 15.6-11.8 28.8-13.4 29.3-13.5 2.2-0.2 4.2 1.3 4.4 3.5 0.2 2.2-1.3 4.2-3.5 4.4-0.2 0-12 1.5-25.8 12.2-12.9 9.9-30.2 30.1-39.5 69.7-0.4 1.9-2 3.2-3.8 3.2z" p-id="9964" fill="#f0a1a8"></path><path d="M549.1 684.5s-20.7 9.5-16.2 43.9 26.7 38.8 9.6 73" fill="#f0a1a8" p-id="9965"></path><path d="M542.5 805.4c-0.6 0-1.2-0.1-1.8-0.4-2-1-2.8-3.4-1.8-5.4 9.9-19.7 5.9-27.9-0.1-40.4-3.8-7.9-8.1-16.8-9.9-30.3-4.9-36.8 17.5-47.6 18.5-48 2-0.9 4.4 0 5.3 2 0.9 2 0 4.4-1.9 5.3-0.8 0.4-18 9.1-13.9 39.7 1.6 12.2 5.6 20.5 9.1 27.9 6.3 13 11.7 24.3 0 47.4-0.7 1.4-2.1 2.2-3.5 2.2z" p-id="9966" fill="#f0a1a8"></path><path d="M939 485.3s-20.7 9.5-16.2 43.9c4.5 34.3 26.7 38.8 9.6 73" fill="#f0a1a8" p-id="9967"></path><path d="M932.4 606.2c-0.6 0-1.2-0.1-1.8-0.4-2-1-2.8-3.4-1.8-5.4 9.9-19.7 5.9-27.9-0.1-40.4-3.8-7.9-8.1-16.8-9.9-30.3-4.9-36.8 17.5-47.6 18.5-48 2-0.9 4.4 0 5.3 2 0.9 2 0 4.4-1.9 5.3-0.8 0.4-18 9.1-13.9 39.7 1.6 12.2 5.6 20.5 9.1 27.9 6.3 13 11.7 24.3 0 47.4-0.7 1.4-2.1 2.2-3.5 2.2z" p-id="9968" fill="#f0a1a8"></path><path d="M55.3 236.9s-19.1 16.4-16.2 43.9c3.6 34.4 26.7 38.8 9.6 73" fill="#f0a1a8" p-id="9969"></path><path d="M48.7 357.8c-0.6 0-1.2-0.1-1.8-0.4-2-1-2.8-3.4-1.8-5.4 9.7-19.3 5.8-27.4-0.2-39.7-3.9-8-8.3-17.2-9.8-31.1-3-29.2 16.7-46.6 17.6-47.3 1.7-1.4 4.2-1.3 5.6 0.4 1.4 1.7 1.3 4.2-0.4 5.6-0.8 0.7-17.4 15.5-14.8 40.4 1.3 12.5 5.4 21 9 28.4 6.2 12.9 11.6 24 0.1 46.8-0.6 1.5-2.1 2.3-3.5 2.3z" p-id="9970" fill="#f0a1a8"></path><path d="M56.7 213.6m-6.6 0a6.6 6.6 0 1 0 13.2 0 6.6 6.6 0 1 0-13.2 0Z" p-id="9971" fill="#f0a1a8"></path><path d="M552.4 659.9m-6.6 0a6.6 6.6 0 1 0 13.2 0 6.6 6.6 0 1 0-13.2 0Z" p-id="9972" fill="#f0a1a8"></path><path d="M945.6 460.7m-6.6 0a6.6 6.6 0 1 0 13.2 0 6.6 6.6 0 1 0-13.2 0Z" p-id="9973" fill="#f0a1a8"></path><path d="M883.6 178.8m-6.6 0a6.6 6.6 0 1 0 13.2 0 6.6 6.6 0 1 0-13.2 0Z" p-id="9974" fill="#f0a1a8"></path><path d="M113.1 608.8m-6.6 0a6.6 6.6 0 1 0 13.2 0 6.6 6.6 0 1 0-13.2 0Z" p-id="9975" fill="#f0a1a8"></path></svg>