<?xml version="1.0" standalone="no"?><!DOCTYPE svg PUBLIC "-//W3C//DTD SVG 1.1//EN" "http://www.w3.org/Graphics/SVG/1.1/DTD/svg11.dtd"><svg t="1639817106617" class="icon" viewBox="0 0 1024 1024" version="1.1" xmlns="http://www.w3.org/2000/svg" p-id="6837" xmlns:xlink="http://www.w3.org/1999/xlink" width="64" height="64"><defs><style type="text/css"></style></defs><path d="M104.934764 852.743421a38.629304 38.629304 0 1 0-38.629303 66.699931l172.029165 99.406074a39.144361 39.144361 0 0 0 19.057123 5.150574A38.629304 38.629304 0 0 0 276.963929 952.922081l-51.505738-30.388385 84.984468-147.048882a180.270083 180.270083 0 0 0 56.141255 9.271033 186.193243 186.193243 0 0 0 58.97407-9.786091 183.875485 183.875485 0 0 0 110.479808-103.011476l84.46941-190.056173-6.953274 60.519242A183.617956 183.617956 0 0 0 756.739879 746.899129v169.711407h-60.519242a38.629304 38.629304 0 0 0 0 77.258607h198.297092a38.629304 38.629304 0 0 0 0-77.258607h-60.519243V746.899129a182.84537 182.84537 0 0 0 143.70101-202.41755l-28.070628-269.117482a38.629304 38.629304 0 0 0-38.371774-34.508844h-231.775822a38.629304 38.629304 0 0 0-38.371775 34.508844l-10.558676 103.011476-2.060229-1.8027-200.61485-116.402968a38.371775 38.371775 0 0 0-51.505738 10.558676L219.535031 489.370439a183.875485 183.875485 0 0 0 22.662525 248.000129l-84.726939 146.791353z m609.312881-534.629561h162.243075l4.635517 45.840107a185.678186 185.678186 0 0 0-78.803779 21.63241c-51.505738 25.752869-80.864009 13.133963-95.285616 2.317758zM690.812535 551.434853l8.755975-82.151652a152.714513 152.714513 0 0 0 49.445509 8.498447 198.55462 198.55462 0 0 0 88.847398-22.920054 92.4528 92.4528 0 0 1 51.505738-12.876434l11.84632 110.479808a106.616878 106.616878 0 1 1-211.431055 0z m-270.405125-206.022952l140.353136 81.121537-4.120459 9.271033a190.82876 190.82876 0 0 1-112.797566 0 326.288851 326.288851 0 0 0-81.636595-9.78609z m-139.065493 188.76853l13.906549-19.057123a194.69169 194.69169 0 0 1 128.764345-5.92316 318.820519 318.820519 0 0 0 93.740444 10.301148l-53.823497 121.038484a106.616878 106.616878 0 0 1-202.932608-19.829709 108.419579 108.419579 0 0 1 20.344767-86.52964z" fill="#E64290" p-id="6838"></path><path d="M545.823882 299.571794a73.395677 73.395677 0 0 0 51.505738-21.374881c45.325049-45.067521 99.148546-112.282509 99.148546-177.179739A103.011476 103.011476 0 0 0 599.647378 0.065927a100.436189 100.436189 0 0 0-53.823496 13.649021 100.693718 100.693718 0 0 0-151.42687 87.302226c0 47.900336 33.47873 107.131935 99.663603 176.149624a72.623091 72.623091 0 0 0 51.763267 22.404996zM495.348259 77.324534a23.435111 23.435111 0 0 1 19.314651 10.043619l31.160972 43.779878 31.4185-43.779878a23.69264 23.69264 0 0 1 43.007291 13.649021c0 28.585685-27.298041 72.880619-73.395676 119.493312-55.368668-58.459013-75.198378-99.921132-75.198378-119.493312a23.69264 23.69264 0 0 1 23.69264-23.69264zM330.272368 252.701573a38.371775 38.371775 0 0 0 29.873328-63.09453L290.870479 105.910219A38.629304 38.629304 0 0 0 231.381351 154.583142l69.275218 84.211881a37.856717 37.856717 0 0 0 29.615799 13.90655zM768.071142 201.195834A38.371775 38.371775 0 0 0 802.579986 180.336011l51.505738-103.011477a38.629304 38.629304 0 1 0-69.017689-34.508844l-51.505738 103.011476a38.886832 38.886832 0 0 0 17.254422 51.505738 41.977177 41.977177 0 0 0 17.254423 3.86293z" fill="#E64290" p-id="6839"></path></svg>