<?xml version="1.0" standalone="no"?><!DOCTYPE svg PUBLIC "-//W3C//DTD SVG 1.1//EN" "http://www.w3.org/Graphics/SVG/1.1/DTD/svg11.dtd"><svg t="1639817131704" class="icon" viewBox="0 0 1024 1024" version="1.1" xmlns="http://www.w3.org/2000/svg" p-id="7211" xmlns:xlink="http://www.w3.org/1999/xlink" width="64" height="64"><defs><style type="text/css"></style></defs><path d="M801.36 94.504c37.84 22.064 40.36 94.264-12.376 127.816l-7.64 4.92-4.4 2.888c-47.2 31.088-85.592 61.392-113.84 53.824-1.784-0.48-3.32-1.616-4.624-3.344-1.976 0.84-3.88 1.064-5.68 0.584-30.608-8.2-49.296-60.888-78.192-116.32C545.72 109.456 584.008 48.192 627.8 48c41.344-0.176 56.528 24.512 83.848 34.176 28.504 5.28 54-8.488 89.712 12.328z" fill="#D7FAF3" p-id="7212"></path><path d="M465.952 466c143.808 0 261.552 24.616 271.336 55.792h0.664l-0.28 1.464c0.184 0.912 0.28 1.824 0.28 2.744 0 2.704-0.816 5.36-2.384 7.976l-77.616 395.816h-0.704c-8.4 22.528-90.84 40.208-191.296 40.208-100.16 0-182.4-17.576-191.216-40h-0.784l-77.68-396.112a15.296 15.296 0 0 1-2.32-7.888c0-0.88 0.08-1.76 0.256-2.64l-0.256-1.36h0.592c9.328-31.272 127.28-56 271.408-56z" fill="#EBF5FF" p-id="7213"></path><path d="M472 582c128.704 0 236.984-18.24 268.64-43.016L664 929.792h-0.704c-8.4 22.528-90.84 40.208-191.296 40.208-100.16 0-182.4-17.576-191.216-40H280l-76.68-391.056c31.6 24.792 139.92 43.056 268.68 43.056z" fill="#BADDFF" p-id="7214"></path><path d="M338.336 217.12l0.208 0.736 32.056 119.648c16.384 61.136 58.056 125.552 75.36 142.616l0.52 0.504c20.816 19.936 40.44 48.744 47.12 72.232l0.336 1.184 1.2 4.296c13.08 44.448 96.976 288.856 81.16 300.48-8.392 6.168-49.56 20.064-87.12 30.904l0.016 0.064-5.768 1.416c-36.744 8.944-76.416 16.784-86.36 15.68-19.512-2.152-69.056-255.768-79.96-300.8l-1.096-4.32c-6.24-23.304-3.896-57.992 3.976-85.896l0.4-1.416c6.576-22.576 10.712-100.128-5.84-161.88l-32.056-119.648c-6-22.4 8.8-25.216 9.768-25.376l11.96-3.2v-0.04l13.136-3.52 0.488-0.176 0.608-0.16c3.52-0.856 14.608-1.92 19.888 16.664z" fill="#FFD9E6" p-id="7215"></path><path d="M723.376 686c-24.432 0-45.736-57.088-57.008-104.424-11.28-47.328-16.288-178.52 0-185.048 10.856-4.352 40.72-6.528 89.584-6.528 48.856 0 78.72 2.176 89.576 6.528 16.288 6.528 11.28 137.72 0 185.048-11.272 47.336-32.576 104.424-57.008 104.424z" fill="#EBF5FF" p-id="7216"></path><path d="M696 408c-5.336 73.336-5.336 126.664 0 160s13.336 64 24 92l6 32L696 678c-26.664-73.336-40-139.336-40-198 0-58.664 8-85.336 24-80l16 8z" fill="#FFFFFF" p-id="7217"></path><path d="M786 400c5.336 49.336 7.336 94 6 134-2 60-20 120-28 120s-48 12-64 6c-10.664-4-6.664 4.664 12 26h80c42.664-36 64-86.664 64-152C856 436 856 400 840 400h-54z" fill="#BEDFFF" p-id="7218"></path><path d="M712 84c-6 30-8 72 28 94 24 14.664-9.336 42.664-100 84-1.336 18.664 9.336 26.664 32 24 34-4 122-52 140-86s24-84-6-104S744 76 712 84z" fill="#90EAD8" p-id="7219"></path><path d="M111.384 395.096c4.144-15.456 25.84-43.928 33.536-32.432 15.96 23.832 70.512 76.872 13.792 103.088 0.08-0.296 0.16-0.592 0.224-0.888-21.856 26.696-71.168-1.744-93.84-9.472-13.096-4.464 8.792-32.784 22.648-40.784 11.728-6.768 39.28 35.008 68.744 33.808l3.312 11c2.496-34.168-52.32-49.744-48.416-64.32z" fill="#FFE9B0" p-id="7220"></path><path d="M680 246m-24 0a24 24 0 1 0 48 0 24 24 0 1 0-48 0Z" fill="#FFE9B0" p-id="7221"></path><path d="M786 114m-30 0a30 30 0 1 0 60 0 30 30 0 1 0-60 0Z" fill="#FFE9B0" p-id="7222"></path><path d="M573.68 340.08c13.096-4.464-8.792-32.784-22.64-40.784-13.864-8-45.864 47.432-80.504 27.432 10.64 61.568 76 22.6 103.136 13.36z" fill="#FFD36C" p-id="7223"></path><path d="M492.256 248.664c7.704-11.496 29.392 16.976 33.536 32.432 4.144 15.456-57.68 32.016-47.328 70.656-56.72-26.216-2.16-79.256 13.792-103.088z" fill="#FFE9B0" p-id="7224"></path><path d="M489.896 246.024l-0.664 0.96c-3.2 4.576-15.88 21.032-18.864 25.168-12.024 16.696-18.896 30.264-20.208 43.152-1.72 16.984 6.96 30.672 27.296 40.08l3.256 1.496c6.728 5.296 15.256 7.672 25.296 7.472 10.544-0.2 22.2-3.096 36.44-8.4l2.168-0.824c5.608-2.184 22.624-9.256 28.08-11.28l0.992-0.36c5.064-1.728 7.288-6.048 6.624-11.416-0.496-3.968-2.536-8.6-5.76-13.6-5.904-9.168-15.288-18.688-22.8-23.024-5-2.888-10.448-1.064-18.344 4.456l-1.248 0.888-0.888 0.664c-3.68 2.768-13.24 10.344-16.88 13.088l-0.632 0.48c-10.608 7.84-19.36 12.36-27.544 13.456 3.368-5.584 8.72-11.12 15.976-17l0.776-0.632c3.024-2.416 13.76-10.384 16.4-12.456l1.384-1.12c7.84-6.456 11.152-11.344 9.576-17.216-2.24-8.368-9.008-19.896-16.336-27.976-4-4.4-7.952-7.576-11.648-9.08-4.856-1.968-9.456-1.064-12.448 3.024z m57.864 56.352c6.32 3.648 14.808 12.264 20.064 20.424 5.056 7.84 5.616 12.32 3.28 13.12l-0.664 0.232c-5.304 1.92-23.12 9.336-28.688 11.504l-0.712 0.272c-28.784 10.92-47.824 11.968-58.752-0.536a26.272 26.272 0 0 1 0.408-10.64c11.04-0.104 21.864-5.12 34.88-14.608l0.944-0.688c3.424-2.528 15.696-12.28 18.328-14.176l1.104-0.792 1.04-0.712c4.744-3.176 7.56-4.096 8.768-3.4z m-39.688-44.92c6.512 7.192 12.64 17.624 14.528 24.672 0.448 1.672-1.536 4.512-6.928 8.96l-1.088 0.88c-1.984 1.6-12.72 9.56-16.32 12.4l-1.088 0.88c-15.496 12.552-23.744 24.448-23.28 38.6l0.024 0.616c-12.24-7.496-16.96-16.88-15.8-28.352 1.104-10.864 7.2-23.08 17.984-38.224l0.76-1.064c2.96-4.12 16.776-22.032 19.384-25.928 1.376-2.048 5.552-0.352 11.824 6.56z" fill="#6A6253" p-id="7225"></path><path d="M306 212c33.336 121.336 52.664 190.664 58 208 8 26 38 90 58 114 13.336 16 24 34 32 54l48-4c-24-50.664-46-88-66-112-30-36-70-150-76-166-4-10.664-8-32.664-12-66l-16-40-26 12z" fill="#FFAFCB" p-id="7226"></path><path d="M378 484m-36 0a36 36 0 1 0 72 0 36 36 0 1 0-72 0Z" fill="#FFE9B0" p-id="7227"></path><path d="M383.056 448.352a36.008 36.008 0 1 1-28.112 63.296 36 36 0 0 0 28.256-63.184l-0.144-0.112z" fill="#FFD36C" p-id="7228"></path><path d="M316 582c0 12 8 60 12 90s50 198 50 208 8 36 44 30S564 864 572 864s2-32-10-72-58-206-64-210-26 2-66 0-116-12-116 0z" fill="#EF99B7" p-id="7229"></path><path d="M314 840m-14 0a14 14 0 1 0 28 0 14 14 0 1 0-28 0Z" fill="#EBF5FF" p-id="7230"></path><path d="M610 736m-20 0a20 20 0 1 0 40 0 20 20 0 1 0-40 0Z" fill="#EBF5FF" p-id="7231"></path><path d="M458 500c22 0 136 4 160 16 16 8 19.336 22 10 42 14.672 10.56 24 10.56 28 0s4-35.232 0-74c-38.664-10.664-74-16.664-106-18-32-1.336-70-1.336-114 0 8 17.336 15.336 28.664 22 34z" fill="#BADDFF" p-id="7232"></path><path d="M272 926a194 38 0 1 0 388 0 194 38 0 1 0-388 0Z" fill="#96C7F7" p-id="7233"></path><path d="M332 572c22 12 14 32 26 80s56 212 74 212 36 36 0 44-38 10-62-54-48-210-48-238-12-56 10-44z" fill="#FFAFCA" p-id="7234"></path><path d="M586.488 896.216c44.792 6.96 73.512 17.712 73.512 29.784 0 20.984-86.856 38-194 38-86.144 0-159.184-11-184.496-26.216 33.104 5.144 74.96 8.216 120.496 8.216 107.144 0 194-17.016 194-38 0-4.056-3.24-7.96-9.248-11.624z" fill="#6CAFF0" p-id="7235"></path><path d="M62.32 456.08c-13.096-4.464 8.792-32.784 22.64-40.784 13.864-8 45.864 47.432 80.504 27.432-10.64 61.568-76 22.6-103.136 13.36z" fill="#FFD36C" p-id="7236"></path><path d="M143.744 364.672c-7.704-11.504-29.392 16.96-33.536 32.424-4.144 15.456 57.68 32.016 47.328 70.656 56.72-26.216 2.16-79.256-13.792-103.08z" fill="#FFE9B0" p-id="7237"></path><path d="M146.104 362.024l0.664 0.96c3.2 4.576 15.88 21.032 18.864 25.168 12.024 16.696 18.896 30.264 20.208 43.152 1.72 16.984-6.96 30.672-27.296 40.08l-3.256 1.496c-6.728 5.296-15.256 7.68-25.296 7.472-10.544-0.2-22.2-3.096-36.44-8.4l-2.168-0.824c-5.608-2.184-22.624-9.256-28.08-11.28l-0.992-0.36c-5.064-1.728-7.288-6.048-6.624-11.416 0.496-3.96 2.536-8.6 5.76-13.6 5.904-9.168 15.288-18.688 22.8-23.024 5-2.888 10.448-1.064 18.344 4.456l1.248 0.888 0.888 0.664c3.68 2.768 13.24 10.344 16.88 13.088l0.632 0.48c10.608 7.84 19.36 12.36 27.544 13.456-3.368-5.584-8.72-11.12-15.976-17l-0.776-0.632c-3.024-2.416-13.76-10.384-16.4-12.456l-1.384-1.12c-7.84-6.456-11.152-11.344-9.576-17.216 2.24-8.368 9.008-19.896 16.336-27.976 4-4.4 7.952-7.576 11.648-9.08 4.856-1.968 9.456-1.064 12.448 3.024z m-57.864 56.352c-6.32 3.648-14.808 12.264-20.064 20.424-5.056 7.84-5.616 12.32-3.28 13.12l0.664 0.232c5.304 1.928 23.12 9.336 28.688 11.504l0.712 0.272c28.784 10.92 47.824 11.976 58.752-0.536a26.272 26.272 0 0 0-0.408-10.64c-11.04-0.104-21.864-5.12-34.88-14.608l-0.944-0.688c-3.424-2.528-15.696-12.28-18.328-14.176l-1.104-0.792-1.04-0.712c-4.744-3.176-7.56-4.096-8.768-3.4z m39.688-44.92c-6.512 7.192-12.64 17.624-14.528 24.672-0.448 1.672 1.536 4.512 6.928 8.96l1.088 0.88c1.984 1.6 12.72 9.56 16.32 12.4l1.088 0.88c15.496 12.552 23.744 24.448 23.28 38.6l-0.024 0.616c12.24-7.496 16.96-16.88 15.8-28.352-1.104-10.864-7.2-23.08-17.984-38.224l-0.76-1.064c-2.96-4.12-16.776-22.032-19.384-25.928-1.376-2.048-5.552-0.352-11.824 6.56z" fill="#6A6253" p-id="7238"></path><path d="M416 898c-32-6-2-28 20-34s86-24 86-48c0-16-24-94-72-234l62 12L576 832c12 22.664 7.336 36.664-14 42-32 8-114 30-146 24z" fill="#F478A4" p-id="7239"></path><path d="M316 492c-18 6-70 22-64 36 4 9.336 24 18.664 60 28 1.488 10.28-1.176 15.616-8 16-44.664 2.536-96.4-18.48-104-38-9.336-24 28-42 112-54 14.664 4 16 8 4 12z" fill="#FFFFFF" p-id="7240"></path><path d="M754.048 925.976c-12.096-0.32-18.784-3.64-20.048-9.976v-98c0-42.664-7.336-84.664-22-126h88c-14.664 41.336-22 83.336-22 126v98c-1.336 6.664-8.664 10-22 10z" fill="#D8D8D8" p-id="7241"></path><path d="M306 584c-24 4-54 10-58 10-2.664 0 20 99.336 68 298l-44 24-78-390C223.336 551.336 260 568 304 576c0 4 26 4 2 8z" fill="#F5FAFF" p-id="7242"></path><path d="M684 952c-12 0-4-8-4-12 20-6 42-24 54-22 5.336 6.664 12.664 9.336 22 8 9.336 1.336 16.664-1.336 22-8 12-2 34 16 54 22 0 4 8 12-4 12z" fill="#D8D8D8" p-id="7243"></path><path d="M740 698c8 32 12 60 12 84v144c-12-1.336-18-6-18-14v-112c0-18-16-96-22-102-4-4 5.336-4 28 0z" fill="#F5F5F5" p-id="7244"></path><path d="M332 204l-54 14 20 80 62-16z" fill="#FFAFCB" p-id="7245"></path><path d="M512 600c18 0 82 16 98 16s34 52 48 70c9.336 12 0 83.336-28 214l28 16L712 686c-25.336-49.336-40.664-88.664-46-118-17.336 0-68.664 5.336-154 16-12 10.664-12 16 0 16z" fill="#96C7F7" p-id="7246"></path><path d="M629.04 32c24.184 0.112 39.68 6.208 62.344 20.784l7.16 4.632 1.776 1.12 1.776 1.104c5.16 3.168 9.048 5.2 13.04 6.76l0.648 0.256 0.544 0.08c3.536 0.544 7.304 0.776 11.736 0.752l1.224-0.008 1.904-0.04 1.44-0.04 1.544-0.056 8.88-0.448c12.912-0.64 19.696-0.592 28.64 0.608 12.904 1.728 25.2 5.88 37.72 13.176 24.056 14.024 37.24 42.976 35.696 74.208-1.568 31.848-18 61.68-46.48 80.24l-8.52 5.496-5.344 3.504-18.24 12.216-12.424 8.344-5.92 3.92-2.576 1.696-2.752 1.784a390.392 390.392 0 0 1-20.248 12.368l-1.952 1.088-1.176 0.64c-18.704 10.208-34.376 15.472-48.856 14.96-4.76 44.424-19.808 86.128-45.056 124.936l-1.928 2.952a136.688 136.688 0 0 0-14.08 28.056c10.56 1.424 20.72 3.008 30.4 4.736l0.032-3.52c0.168-13.936 0.84-26.336 2.032-36.432 0.96-8.12 2.24-14.84 3.992-20.208 2.784-8.56 6.736-14.72 14.4-17.784 13.04-5.224 41.8-7.488 89.408-7.664l4.616-0.008h4.608l6.08 0.016c45.784 0.264 73.608 2.552 86.352 7.656 7.664 3.072 11.624 9.224 14.4 17.784 1.752 5.36 3.04 12.088 4 20.208 1.624 13.816 2.28 31.92 2.008 52.408l-0.056 3.64-0.072 3.424c-0.912 40.072-5.072 82.664-10.664 106.144-6.504 27.28-15.12 53.4-24.736 73.232-10.256 21.144-21.496 35.616-35.192 41.072-11.312 36.408-17.088 77.088-17.304 122.04v85.72l7.04 2.976c19.592 8.208 34.24 13.84 43.848 16.864l1.216 0.376c8.544 2.608 15.024 11.624 10.64 20.48-4.08 8.2-15.72 11.832-35.248 11.952H703.576c-19.936 0-31.84-3.528-36.128-11.656a12.968 12.968 0 0 1-1.56-6.608c-3.92 4.28-9.136 8.064-15.408 11.464-11.112 6.016-26.4 11.2-45.2 15.52-37.04 8.48-86.584 13.28-139.328 13.28-52.752 0-102.304-4.8-139.344-13.28-18.792-4.32-34.08-9.504-45.2-15.52-8.432-4.576-14.984-9.864-18.992-16.104a15.92 15.92 0 0 1-4.064-7.52l-0.104-0.496-77.144-393.424a30.672 30.672 0 0 1-3.072-16c-0.408-3.904 0.64-7.68 2.744-10.728 5.968-13.048 21.2-23.184 43.48-31.728 21.664-8.312 51.024-15.304 85.864-20.56v-0.616l0.032-3.816-0.016-3.856c-0.224-31.76-3.688-63.24-10.528-89.64l-0.52-1.968-11.808-44.072a23.936 23.936 0 0 1-12.128-14.488l-0.2-0.704-19.264-71.904a24 24 0 0 1 16.384-29.224l0.584-0.16 54.432-14.592a24 24 0 0 1 29.224 16.384l0.16 0.592 19.272 71.896a23.92 23.92 0 0 1-1.912 17.32l12.224 45.608c6.936 25.88 19.28 54.536 34.624 81.992l1.824 3.24 1.312 2.296a415.776 415.776 0 0 0 15.84 25.36 1229.76 1229.76 0 0 1 26.296-0.28c38.928 0 76.608 1.784 111.144 5.136 4.352-14.256 10.912-28.16 19.664-41.68l2.016-3.08c23.36-35.936 36.832-74.344 40.48-115.44-15.664-7.608-28.392-23.32-42.312-48.416l-0.96-1.744-0.96-1.784-1.52-2.896c-7.272-14-21.656-43.256-29.16-58.272l-2.88-5.72-1.584-3.096c-15.424-30.392-14.728-64.44-0.16-92.8 14.12-27.512 39.6-45.888 67.096-46.4L627.728 32h1.304zM506.432 903.56l-5.056 1.504-6.376 1.864-0.12 0.048a16.096 16.096 0 0 1-0.92 0.32l-0.48 0.136-0.48 0.128-5.856 1.44-7.792 1.872-5.232 1.224c-37.96 8.824-68.024 14.12-78.824 12.928-7.256-0.8-11.808-4.768-15.824-10.656-2.232-3.272-4.352-7.4-6.536-12.528-26.096 3.408-48.08 8.208-63.712 13.84-7.768 2.8-13.616 5.696-17.2 8.352l-0.24 0.176 0.176 0.128c1.072 0.8 2.432 1.672 4.064 2.584l0.624 0.344c8.184 4.432 20.896 8.744 37.104 12.456 34.504 7.912 81.704 12.48 132.192 12.48 50.48 0 97.68-4.568 132.184-12.48l2.744-0.64c14.904-3.568 26.64-7.64 34.36-11.816 1.672-0.904 3.08-1.784 4.224-2.592l0.64-0.464-0.456-0.336-0.64-0.456c-4.864-3.32-12.8-6.8-23.304-10.056-22.512-6.984-54.704-12.32-91.76-15.072l-0.264-0.024c-5.552 1.76-11.32 3.52-17.24 5.296z m274.232 22.024c-8.176 6.136-16.68 9.336-25.384 9.336-8.28 0-16.376-2.888-24.168-8.448l-5.456 2.28c-17 7.064-30.216 12.144-39.712 15.256l-0.96 0.312 0.4 0.112c3.92 1.08 9.64 1.712 17.144 1.768h107.784c7.76 0 13.68-0.6 17.76-1.656l0.824-0.224-1.704-0.56-2.328-0.784c-10.664-3.648-25.376-9.44-44.2-17.392z m-65.84-204.304l-41.184 210-0.112 0.536c1.144-0.72 2.376-1.328 3.664-1.8l0.448-0.16 2.048-0.64 1.336-0.432 1.424-0.48c10.224-3.424 25-9.216 44.256-17.344v-84.496c0-38.112-3.968-73.168-11.88-105.184z m68.912-17.08h-56.92c10.384 36.12 15.68 75.976 15.888 119.56v91.208l0.232 0.144c4.056 2.44 7.944 3.672 11.712 3.792l0.632 0.016c3.936 0 8-1.216 12.248-3.76a7.904 7.904 0 0 1 0.32-2.736v-85.96c0-44.64 5.288-85.392 15.888-122.264z m-425.44 17.88l2.288 10.32 3.52 15.64 1.256 5.488 2.016 8.784 2.52 10.84c7.144 30.504 13.6 56.12 19.4 76.536l0.816 2.848 1.168 4.016 1.2 4.048 1.176 3.864c2.84 9.224 5.44 16.784 7.76 22.536l0.32 0.768 0.616 1.48c0.432 1.016 0.848 1.952 1.248 2.792l0.424 0.904 1.696-0.192 1.424-0.176 1.648-0.216c3.688-0.504 8.216-1.208 13.328-2.112l3.48-0.624 3.256-0.608c10.424-1.976 22.48-4.528 35.008-7.4l4.224-0.968 3.848-0.904 7.656-1.84 4.4-1.08 0.264-0.088 0.48-0.144 4.088-1.2c29.968-8.768 58.44-18.416 71.392-23.928l0.576-0.248 1.376-0.608-0.032-0.4-0.12-1.448-0.168-1.6-0.184-1.456-0.216-1.632-0.256-1.712a331.944 331.944 0 0 0-4.888-24.28l-0.632-2.68-0.992-4.104-0.672-2.72c-4.416-17.784-10.424-39.36-17.896-64.544l-3.648-0.736-2.68-0.552-10.16-2.184c-11.696-2.536-27.64-6.04-31.728-6.912-22.816-4.84-42.04-8.272-62.968-10.952-24.336-3.112-46.536-3.32-66.64-0.616z m321.92 9.344c-13.84 5.68-26.864 9.976-39.352 13.04a32.008 32.008 0 0 1-59.728 5.688 232.704 232.704 0 0 1-10.096-0.752l1.232 4.264a1306.08 1306.08 0 0 1 13.496 50.056l0.712 2.92 1.032 4.36 0.672 2.928c2.304 10.112 3.976 18.72 4.968 25.816l0.136 0.96 0.24 1.936c0.68 5.56 0.912 10.208 0.616 14.168-0.52 6.936-2.4 12.552-7.968 16.832 14.608 2.592 27.744 5.664 39 9.152 9.08 2.816 16.952 5.896 23.544 9.288l31.496-160.656z m-353.136-2.272l-0.664 0.216c-26.64 8.936-48.624 24.4-66.064 46.368l22.808 116.344a128.968 128.968 0 0 1 15.216-6.504c16.608-5.984 38.424-10.936 63.816-14.568l-1.168-3.92-0.856-2.904-0.816-2.824c-6.296-21.888-13.296-49.576-21.064-82.848l-2.048-8.8-2.64-11.52-1.936-8.56-2.272-10.096a5529.6 5529.6 0 0 1-2.312-10.384z m-13.136 87.056a24 24 0 1 1 0 48 24 24 0 0 1 0-48z m0 16a8 8 0 1 0 0 16 8 8 0 0 0 0-16zM219.44 567.088l37 188.68c18.48-19.832 40.904-33.936 67.2-42.32l-2.424-11.08-15.728-72.92-2.208-9.968-1.04-4.504-0.64-2.72-1.096-4.32-0.272-1.04a123.2 123.2 0 0 1-3.152-19.416c-9.416-1.6-18.4-3.344-26.912-5.224-19.984-4.408-37.04-9.488-50.72-15.168z m390.512 153.12a16 16 0 1 0 0 32 16 16 0 0 0 0-32z m40.208-135.536l-1.52 0.296c-35.632 6.92-78.376 11.696-124.576 13.88l10.416 32.36 8.528 26.68 2.872 9.056 3.12 9.896c1.704 5.424 3.36 10.72 4.976 15.928l2.56 8.264 2.72 8.88 3.216 10.576 2.784 9.264 0.904 3.024a254.72 254.72 0 0 0 11.872 1.152 32 32 0 0 1 62.84-5.984c13.44-3.544 27.656-8.64 43.08-15.52l5.536-28.24c-4.352-5.712-8.472-12.56-12.432-20.4l-0.56-1.104-0.96-1.96c-9.616-19.84-18.24-45.944-24.736-73.232l-0.424-1.856-0.216-0.96zM343.104 593.84l-0.88 0.48c-3.56 1.928-7.104 3.952-10.624 6.056l1.056 4.168 0.872 3.664 0.832 3.64c0.416 1.84 0.88 3.872 1.376 6.16l1.856 8.456 10.92 50.72 5.84 26.912 0.504 2.32c21.896-3.08 45.944-2.944 72.112 0.4 20.52 2.632 39.408 5.96 61.376 10.56l6.912 1.48c8.824 1.92 26.92 5.904 35.64 7.76l-2.304-7.552-4.128-13.424-3.2-10.296-3.8-12.112a5970.32 5970.32 0 0 0-2.96-9.376l-6.376-20.048-2.032-6.336-15.296-47.52c-8.216 0.16-16.504 0.24-24.848 0.24l-5.488-0.008c-41.424-0.176-81.32-2.384-117.36-6.344z m496.68-113.896h-167.68c0.608 27.384 2.816 56.128 5.864 77.96a15.896 15.896 0 0 1 1.6 10.312c0.752 4.416 1.544 8.4 2.368 11.848 6 25.2 13.92 49.216 22.4 66.688 4.496 9.28 9 16.4 13.176 20.944 1.792 1.952 3.4 3.28 4.696 4l0.424 0.232a2.664 2.664 0 0 0 0.696 0.264H788.52c0.08 0 0.248-0.04 0.552-0.176l0.2-0.088 0.416-0.224c1.304-0.736 2.904-2.056 4.696-4 4.176-4.544 8.68-11.68 13.176-20.952 8.48-17.472 16.4-41.48 22.4-66.688l0.424-1.824c4.816-21.52 8.584-61.16 9.4-98.296zM415.88 567.04l-0.52 0.112c16.48 0.696 33.4 1.056 50.592 1.056l5.144-0.016c3.216-0.016 6.416-0.04 9.608-0.08l-0.96-3.2-1.04-3.696a278.536 278.536 0 0 0-62.824 5.824z m50.4-86.832l0.104 0.104c19.36 20.992 35.608 47.008 42.272 69.24l0.368 1.28 0.312 1.112 1.152 4.112 1.024 3.416 1.496 4.848 0.92 2.936A1038.64 1038.64 0 0 0 584 562.184l0.168 0.432c-10.704-26.672-15.072-52.64-13.08-77.696-32.56-3.064-68.08-4.704-104.8-4.72z m-43.96-0.768l0.04 0.336a44.184 44.184 0 0 1-83.256 24.568c-0.88 6.264-1.92 11.656-3.096 15.92l-0.624 2.176a191.4 191.4 0 0 0-6.48 37.472c12.848 1.688 26.32 3.136 40.304 4.328a282.408 282.408 0 0 1 28.576-9.312 290.04 290.04 0 0 1 74.88-9.76c-7.888-16.568-21.264-35.12-36.064-49.6l-1.864-1.816a143.152 143.152 0 0 1-12.416-14.32z m180.584 9.04l-0.008 0.048c-1.392 19.84 2.256 40.488 10.96 62.168 1 2.48 1.328 5.064 1.08 7.552a614.656 614.656 0 0 0 30.144-5.2 750.736 750.736 0 0 1-4.536-58.576 666.48 666.48 0 0 0-37.64-5.984z m-294.48 3.008l-0.512 0.08c-29.616 4.784-54.328 10.856-72.192 17.712-10.12 3.88-17.656 7.872-22.24 11.616-1.12 0.912-1.984 1.744-2.608 2.464l0.424 2.152 0.248 0.264c2.248 2.28 6 4.896 11.176 7.6 12.232 6.376 30.8 12.44 54.344 17.632 6.416 1.416 13.136 2.752 20.128 4.008 1.12-13.36 3.48-26.976 6.976-39.76l0.432-1.56 0.576-2 0.288-1.096c1.144-4.56 2.16-11.168 2.96-19.12z m62.672-34.56a28.176 28.176 0 1 0 14.584 54.424 28.176 28.176 0 0 0-14.584-54.424z m392.024-48.704l-5.76-0.016-7.408 0.008c-36.072 0.144-60.824 1.632-72.44 3.952l-0.464 0.096-0.88 0.192-0.176 0.624c-0.56 2.088-1.096 4.76-1.576 7.944l-0.256 1.784-0.24 1.888-0.24 2.048c-1.112 9.928-1.688 22.688-1.728 37.208h168l-0.024-3.2c-0.112-13.736-0.728-25.776-1.832-35.136l-0.24-1.92a84.032 84.032 0 0 0-1.952-10.616l-0.176-0.624-0.448-0.104c-10.48-2.264-33.08-3.776-66.216-4.088l-5.944-0.04zM344.936 305.776l-25.16 6.736 10.224 38.152c7.76 28.976 11.696 62.92 12.112 97.152l0.032 3.952c0.008 2.4 0 4.8-0.024 7.16a43.984 43.984 0 0 1 24.84-17.456 44.024 44.024 0 0 1 32.696 3.944c-17.752-30.032-34.96-67.12-43.92-99.392l-0.592-2.144-10.208-38.104zM320.864 218.64l-11.424 3.064-0.144 0.048-0.464 0.152-0.48 0.136-11.288 3.016v0.112c-0.048 1.12 0.112 2.656 0.576 4.648l0.152 0.616 0.152 0.584 13.552 50.584 25.152-6.736-13.528-50.512-0.176-0.64a21.472 21.472 0 0 0-1.808-4.624l-0.176-0.304-0.096-0.144z m343.632 23.424a16 16 0 1 0 30.904 8.28 16 16 0 0 0-30.904-8.28zM628.912 64h-1.04l-0.72 0.008c-14.72 0.408-29.952 11.456-38.968 29.024-9.936 19.344-10.448 42.48 0.112 63.464l2.008 3.92 3.24 6.456c7.8 15.624 21.512 43.48 28.248 56.472l1.456 2.776 1.024 1.896c2.744 5.008 5.376 9.472 7.904 13.432a48 48 0 0 1 95.72 2.208l2.68-1.76 6.272-4.168 25.44-17.072 3.76-2.512 6.624-4.352 8.64-5.56c16.92-11.112 27.52-27.712 30.824-45.984a56 56 0 0 1-78.112-62.88l-0.952 0.032-1.92 0.048-1.536 0.032c-7.136 0.096-13.36-0.28-19.552-1.336l-1.328-0.24-1.24-0.224-2.096-0.752c-8.16-2.976-14.944-6.68-24.856-13.04l-7.472-4.832C655.76 68.016 645.48 64.08 628.912 64z m22.424 13.704a44 44 0 1 1-22.776 85 44 44 0 0 1 22.776-85z m114.624 21.312l0.032 0.288c0.192 1.76 0.088 3.568-0.336 5.376l-0.12 0.48a24 24 0 0 0 42.608 20.32c-3.464-7.496-8.56-13.496-14.84-17.152-9.608-5.6-17.304-8.32-27.344-9.312z m-137.6 18.08a12 12 0 1 0 23.176 6.216 12 12 0 0 0-23.176-6.216z" fill="#6A6253" p-id="7247"></path><path d="M640 120m-24 0a24 24 0 1 0 48 0 24 24 0 1 0-48 0Z" fill="#FFE9B0" p-id="7248"></path></svg>