<?xml version="1.0" standalone="no"?><!DOCTYPE svg PUBLIC "-//W3C//DTD SVG 1.1//EN" "http://www.w3.org/Graphics/SVG/1.1/DTD/svg11.dtd"><svg t="1639817020834" class="icon" viewBox="0 0 1024 1024" version="1.1" xmlns="http://www.w3.org/2000/svg" p-id="6646" xmlns:xlink="http://www.w3.org/1999/xlink" width="64" height="64"><defs><style type="text/css"></style></defs><path d="M201 550.8c18 21 43.6 36.2 73.2 47 26.6 9.6 53 14.4 78 12" fill="#E1FFFB" p-id="6647"></path><path d="M239.6 736.4l28.8-79c11.6-32 38.4-39.2 85-47.4s88.6-37.6 115.6-111.8c17.6-48.2 33-125.4 31.2-179l-109-39.6-3.2-1.2-109-39.6c-35.8 40-73.6 109-91.2 157.2-27 74.2-13.8 123.6 16.8 159.8 30.4 36.2 46.2 59 34.6 90.8l-28.8 79c-8.2 22.6-14.6 28-37.6 34.8S77.8 768 77.8 768l116.6 42.4 3.2 1.2 116.6 42.4s-54.6-46.8-67.8-66.8c-13.6-20-15-28.2-6.8-50.8zM664.8 646.4c27.4 4.4 56.8-0.2 86.2-11 26.6-9.6 50-23 67.6-41" fill="#E1FFFB" p-id="6648"></path><path d="M813.8 763.8l-28.8-79c-11.6-32 4.2-54.8 34.6-90.8 30.6-36.2 43.8-85.8 16.8-159.8-17.6-48.2-55.4-117.2-91.2-157.2l-109 39.6-3.2 1.2-109 39.6c-1.8 53.6 13.6 130.8 31.2 179 27 74 69 103.6 115.6 111.8s73.2 15.4 85 47.4l28.8 79c8.2 22.6 6.8 30.8-6.4 50.8-13.2 20.2-67.8 66.8-67.8 66.8l116.6-42.4 3.2-1.2 116.6-42.4s-71.8-0.6-95-7.6c-23.4-7-29.8-12.4-38-34.8z" fill="#E1FFFB" p-id="6649"></path><path d="M276 454.2c-4 0-8-0.2-12-0.8-43-5-69.4-17.2-78.8-36.2-8.4-17 0.4-32.6 0.8-33.2 1.6-2.8 5.4-3.8 8.2-2.2 2.8 1.6 3.8 5.4 2.2 8.2-0.2 0.6-6 10.8-0.4 22 5.2 10.4 21.6 23.8 69.4 29.4 28.4 3.4 54.4-7.6 79.4-18.4 17.8-7.6 36.4-15.4 55.2-17.6 52.6-6 90.8 5.8 92.4 6.2a6.074 6.074 0 0 1-3.6 11.6c-0.4-0.2-37.6-11.6-87.6-5.8-17 2-34 9.2-51.8 16.8-23 10-46.8 20-73.4 20zM613.8 484.2c-57.8 0-84.6-31.4-85.8-32.8-2.2-2.6-1.8-6.4 0.8-8.4 2.6-2.2 6.4-1.8 8.4 0.8 1.2 1.4 29.2 33.4 90.8 27.8 65.4-6 101-33 134.6-62.8 38.4-33.8 57.2-22.8 59.4-21.4l-6.8 10 0.2 0.2c-0.2 0-13.8-7-44.8 20.4-35.2 31-72.4 59.4-141.4 65.6-5.4 0.4-10.4 0.6-15.4 0.6zM371.6 545.6c-8.2 0-15-6.8-15-15s6.8-15 15-15 15 6.8 15 15-6.8 15-15 15z m0-18c-1.6 0-3 1.4-3 3s1.4 3 3 3 3-1.4 3-3-1.4-3-3-3zM661.6 595.6c-8.2 0-15-6.8-15-15s6.8-15 15-15 15 6.8 15 15-6.8 15-15 15z m0-18c-1.6 0-3 1.4-3 3s1.4 3 3 3 3-1.4 3-3-1.4-3-3-3zM600.6 549.6c-10 0-18-8-18-18s8-18 18-18 18 8 18 18-8 18-18 18z m0-24c-3.4 0-6 2.6-6 6s2.6 6 6 6 6-2.6 6-6-2.6-6-6-6zM370.6 481.6c-10 0-18-8-18-18s8-18 18-18 18 8 18 18-8 18-18 18z m0-24c-3.4 0-6 2.6-6 6s2.6 6 6 6 6-2.6 6-6-2.6-6-6-6z" fill="#2C3AC4" p-id="6650"></path><path d="M583.8 479.4c-4.4 0-8.8-2.2-12-6.2-3-3.8-5.6-8.2-1.6-13.6 0 0 0.2-0.2 0.2-0.4v-0.2c0-4.6 2.8-8.6 7.2-10.4 5.4-2.4 12.2-1.2 16.8 3 7.8 6.8 3.2 15.8 1.4 19.2l-0.6 1.2c-1.2 3.4-4.6 6.2-8.8 7-1 0.2-1.8 0.4-2.6 0.4z m-3-14l0.2 0.2c1.4 1.6 2.4 1.8 3 1.8 0.2-0.6 0.6-1.2 1-2 2-4 1.6-4.4 1.2-4.8-1.4-1.2-3-1.2-3.8-0.8-0.2 2.4-0.8 4.2-1.6 5.6zM478.2 289.4c-2.4 0-4.6-1-6.2-3-2.2-2.8-2.2-5.4-1.2-7.4 0.6-2 2.2-3.8 4.2-4.8 3-1.2 6.4-0.6 8.6 1.6 1.2 1.2 3.6 4.4 1.2 9.2 0 0 0-0.2 0.2-0.4-0.8 2.4-2.8 4-5.4 4.6-0.6 0.2-1 0.2-1.4 0.2z m-2.8-4.8c1.2 1 2.8 1.4 4.2 0.8 1-0.4 1.8-1.2 2.4-2.2 0.4-1.8 0-3.6-0.8-4.6l-0.2-0.2-1.6 1.6 1.4-1.8c-1-0.8-2.2-1.2-3.6-1-1.4 0.2-2.6 1.2-3.4 2.4-0.2 1.4 0 3.6 1.6 5z m0.2 0.2z m-0.4-0.4z m-1.6-3.8v0z m9 0.2zM562.2 187.4c-2.4 0-4.6-1-6.2-3-2.4-2.8-2.2-5.6-1-7.6 0.6-2.4 2.4-4.2 4.8-4.8 2.8-0.8 5.8-0.2 8 2 1.2 1.2 3.6 4.4 1.2 9.2-0.8 2.2-2.8 3.8-5.2 4.2h-1.6z m-2.8-4.8c1 1 2.6 1.2 4 0.8 1-0.4 2-1.2 2.6-2 0.2-0.6 0.2-1 0.2-1.6l-5.6-1h5.4c-0.2-0.8-0.4-1.6-0.8-2l-0.2-0.2-1.6 1.6 1.4-1.8c-1-0.8-2.2-1.2-3.6-1-1.4 0.2-2.6 1.2-3.4 2.4-0.2 1.2 0 3.4 1.6 4.8z m9.4 0.2v0z m-9.2 0z m-0.4-0.4z m-1.6-3.8s0 0.2-0.2 0.2c0.2 0 0.2 0 0.2-0.2zM289.6 551.6c-3.8 0-7-3.2-7-7s3.2-7 7-7 7 3.2 7 7-3.2 7-7 7z m0-12c-2.8 0-5 2.2-5 5s2.2 5 5 5 5-2.2 5-5-2.2-5-5-5z" fill="#2C3AC4" p-id="6651"></path><path d="M572.6 285.6s4-58 32-60c16.6-1.2 20.8 16.6 14 26-4.6 6.4-18.8 6-26 10-18 10-20 24-20 24zM533 280.2s-32.6-32.8-19-50.6c8-10.6 20.8-3.8 22.8 5.2 1.4 6.2-6.2 14.4-7.6 20.8-3.6 16 3.8 24.6 3.8 24.6zM436.4 261.6s0-43.2-19.6-46c-14.2-2-19.6 18.2-4.2 21 6.4 1.2 12.8 4.8 16.8 9.8 5.4 6.8 7 15.2 7 15.2zM475.4 206.4s24.8-56.8 0.8-71.6c-17.4-10.8-36 12.6-17.6 25 7.8 5.2 14.2 13.8 16.4 22.4 3.2 12.2 0.4 24.2 0.4 24.2z" fill="#B3BEFF" p-id="6652"></path><path d="M704.6 599.6c-0.4 0-0.8 0-1.2-0.2-0.4 0-0.8-0.2-1.2-0.4-0.4-0.2-0.6-0.4-1-0.6-0.4-0.2-0.6-0.4-1-0.8-1.2-1.2-1.8-2.6-1.8-4.2s0.6-3.2 1.8-4.2c0.2-0.2 0.6-0.6 1-0.8 0.4-0.2 0.6-0.4 1-0.6 0.4-0.2 0.8-0.2 1.2-0.4 2-0.4 4 0.2 5.4 1.6 1.2 1.2 1.8 2.6 1.8 4.2s-0.6 3.2-1.8 4.2c-0.2 0.2-0.6 0.6-1 0.8-0.4 0.2-0.6 0.4-1 0.6-0.4 0.2-0.8 0.2-1.2 0.4-0.2 0.4-0.6 0.4-1 0.4zM771.4 246.2c-1.2 0-2.4-0.4-3.4-1.2-2.6-2-3.4-5.6-1.4-8.4l13.4-18.8c2-2.6 5.6-3.4 8.4-1.4s3.4 5.6 1.4 8.4l-13.4 18.8c-1.2 1.8-3.2 2.6-5 2.6zM726.2 237.6c-2.8 0-5.2-2-5.8-4.8l-4.8-22c-0.8-3.2 1.4-6.4 4.6-7.2 3.2-0.8 6.4 1.4 7.2 4.6l4.8 22c0.8 3.2-1.4 6.4-4.6 7.2-0.6 0.2-1 0.2-1.4 0.2zM797 282c-2.8 0-5.4-2-5.8-5-0.6-3.2 1.6-6.4 4.8-7l23.6-4.4c3.2-0.6 6.4 1.6 7 4.8 0.6 3.2-1.6 6.4-4.8 7l-23.6 4.4c-0.4 0.2-0.8 0.2-1.2 0.2zM263.4 202.2c-2.4 0-4.6-1.4-5.6-3.8l-7.2-18.4c-1.2-3 0.4-6.6 3.4-7.8 3-1.2 6.6 0.4 7.8 3.4l7.2 18.4c1.2 3-0.4 6.6-3.4 7.8-0.8 0.2-1.4 0.4-2.2 0.4zM236.2 228.4c-0.8 0-1.6-0.2-2.4-0.4l-18-7.8c-3-1.4-4.4-4.8-3.2-7.8 1.4-3 4.8-4.4 7.8-3.2l18 7.8c3 1.4 4.4 4.8 3.2 7.8-0.8 2.2-3 3.6-5.4 3.6zM301.2 202.8c-0.8 0-1.6-0.2-2.4-0.4-3-1.4-4.4-4.8-3.2-7.8l7.8-18c1.4-3 4.8-4.4 7.8-3.2 3 1.4 4.4 4.8 3.2 7.8l-7.8 18c-0.8 2.2-3 3.6-5.4 3.6z" fill="#2C3AC4" p-id="6653"></path><path d="M215.2 561.8l54.2 35.2 74.8 13.6-41.2 11-23.2 15-44 113.2 6.4 37.6 63.2 60.8-219-78.6 50.6-5.2 54.2-10 19-22 33.6-104.2-12-37.4z" fill="#5ACCC3" p-id="6654"></path><path d="M808.8 598.6l-54.2 35.2-74.8 13.4 41.2 11 23.4 15 43.8 113.2L782 824l-63.4 61 219.2-78.8-50.6-5.2-54.2-9.8-19-22.2-33.6-104 11.8-37.6z" fill="#FFB3E2" p-id="6655"></path><path d="M183 405.6l-10 58 10 56 32.2 42.2 43.6 31.6 87 15 66.2-24 41.8-44.8 26.4-73.8 12.6-54.8s-60.2-8.4-93.4-3.2-52.8 24.8-94.4 35.4-83.8-8.6-83.8-8.6l-38.2-29z" fill="#B3BEFF" p-id="6656"></path><path d="M816.2 387.2l36.2 88.4-5 75.2-34.6 44.8-41.8 33.8-86.2 19.6-67.2-20.6-44-42.6-30.2-72.4-10.8-62s62.6 22.4 96 26c15.6 1.6 53.4-7.8 83.2-24 34-18.6 59.6-44.2 59.6-44.2l44.8-22z" fill="#B3BEFF" p-id="6657"></path><path d="M339.4 616.4c-20.8 0-43.2-4.4-67.2-13-32.8-12-58.2-28.4-75.8-48.8-2.2-2.6-1.8-6.4 0.6-8.4 2.6-2.2 6.4-1.8 8.4 0.6 16.2 18.8 40 34 70.8 45.2 27.4 10 52.8 13.8 75.4 11.6 3.4-0.4 6.2 2.2 6.6 5.4 0.4 3.2-2.2 6.2-5.4 6.6-4.4 0.6-9 0.8-13.4 0.8z" fill="#2C3AC4" p-id="6658"></path><path d="M314.2 860c-0.6 0-1.4-0.2-2-0.4l-116.6-42.4-3.2-1.2-116.6-42.4c-2.8-1-4.4-3.8-3.8-6.6 0.4-2.8 3-5 5.8-5 0.8 0 71.4-0.8 93.4-7.4 21.6-6.4 26.2-10.8 33.6-31l28.8-79c10.2-28.2-3-48.4-33.6-84.8-36.8-43.6-42.6-97.8-17.8-165.8 16.8-45.8 54.8-117.2 92.4-159.2 1.6-1.8 4.2-2.4 6.6-1.6l109 39.6 3.2 1.2 109 39.6c2.4 0.8 3.8 3 4 5.4 1.8 56.4-14.8 135.4-31.6 181.2-24.8 68-64 105.8-120.2 115.6-47 8.2-70.2 15.2-80.4 43.6l-28.8 79c-7.4 20.4-6.6 26.8 6.2 45.4 12.6 19.2 66.2 65.2 66.8 65.6 2.2 1.8 2.8 5 1.2 7.6-1.4 2-3.4 3-5.4 3zM109.4 773.2l177.4 64.6c-16.8-15.4-37.6-35.4-45.4-47.2-15-22-16.2-31.8-7.4-56.2l28.8-79c12.8-35.4 42.4-43 89.6-51.2 51.6-9 87.8-44.4 111-108 16-43.6 31.8-118.2 31-172.8l-213.6-77.6c-35.8 41.2-71.4 108.6-87.4 152.2-23.2 63.6-18 114 15.8 153.8 30.8 36.6 48.6 61.4 35.6 96.8L216 727.6c-8.6 23.8-16.4 31-41.6 38.6-13.4 4-42.4 6-65 7zM686.2 654c-7.6 0-15-0.6-22.2-1.8-3.2-0.6-5.4-3.6-5-6.8 0.6-3.2 3.6-5.6 6.8-5 25 4 53 0.4 83.2-10.8 27.4-9.8 49.4-23.2 65.4-39.6 2.4-2.4 6.2-2.4 8.4 0 2.4 2.4 2.4 6.2 0 8.4-17.2 17.6-40.8 32-69.8 42.4-23.6 9-46 13.2-66.8 13.2z" fill="#2C3AC4" p-id="6659"></path><path d="M710.4 898.2c-2 0-4-1-5.2-3-1.4-2.6-1-5.8 1.2-7.6 0.6-0.4 54-46.2 66.6-65.6 12.4-18.8 13.2-25.2 5.8-45.4L750 697.6c-10.4-28.4-33.6-35.4-80.4-43.6-56-9.8-95.4-47.6-120.2-115.6-16.8-45.8-33.4-124.8-31.6-181.2 0-2.4 1.6-4.6 4-5.4l109-39.6 3.2-1.2 109-39.6c2.4-0.8 4.8-0.2 6.6 1.6 37.6 42 75.6 113.4 92.4 159.2 24.8 68 19 122.2-17.8 165.8-30.6 36.2-43.8 56.4-33.6 84.8l28.8 79c7.4 20.2 12.2 24.6 34 31.2 22.2 6.6 92.6 7.4 93.4 7.4 3 0 5.4 2.2 5.8 5 0.4 2.8-1.2 5.6-3.8 6.6l-116.6 42.4-3.2 1.2-116.6 42.4c-0.6 0-1.4 0.2-2 0.2z m-180.6-536.6c-1 54.6 15 129 31 172.6 23.2 63.6 59.6 98.8 111 108 47 8.2 76.6 15.8 89.6 51.2l28.8 79c8.8 24.2 7.6 34.2-7 56.2-7.8 11.8-28.4 31.8-45.2 47l177-64.4c-22.6-1-51.4-3-65-7-25.6-7.6-33.2-14.6-42-38.4l-28.8-79c-12.8-35.4 5.8-61.4 35.6-96.8 33.8-40 39-90.4 15.8-153.8-16-43.6-51.6-111-87.4-152.2l-213.4 77.6zM276 454.2c-4 0-8-0.2-12-0.8-43-5-69.4-17.2-78.8-36.2-8.4-17 0.4-32.6 0.8-33.2 1.6-2.8 5.4-3.8 8.2-2.2 2.8 1.6 3.8 5.4 2.2 8.2-0.2 0.6-6 10.8-0.4 22 5.2 10.4 21.6 23.8 69.4 29.4 28.4 3.4 54.4-7.6 79.4-18.4 17.8-7.6 36.4-15.4 55.2-17.6 52.6-6 90.8 5.8 92.4 6.2a6.074 6.074 0 0 1-3.6 11.6c-0.4-0.2-37.6-11.6-87.6-5.8-17 2-34 9.2-51.8 16.8-23 10-46.8 20-73.4 20z" fill="#2C3AC4" p-id="6660"></path><path d="M613.8 484.2c-57.8 0-84.6-31.4-85.8-32.8-2.2-2.6-1.8-6.4 0.8-8.4 2.6-2.2 6.4-1.8 8.4 0.8 1.2 1.4 29.2 33.4 90.8 27.8 65.4-6 101-33 134.6-62.8 38.4-33.8 57.2-22.8 59.4-21.4l-6.8 10 0.2 0.2c-0.2 0-13.8-7-44.8 20.4-35.2 31-72.4 59.4-141.4 65.6-5.4 0.4-10.4 0.6-15.4 0.6z" fill="#2C3AC4" p-id="6661"></path><path d="M371.6 530.6m-9 0a9 9 0 1 0 18 0 9 9 0 1 0-18 0Z" fill="#FFFFFF" p-id="6662"></path><path d="M371.6 545.6c-8.2 0-15-6.8-15-15s6.8-15 15-15 15 6.8 15 15-6.8 15-15 15z m0-18c-1.6 0-3 1.4-3 3s1.4 3 3 3 3-1.4 3-3-1.4-3-3-3z" fill="#FFFFFF" p-id="6663"></path><path d="M661.6 580.6m-9 0a9 9 0 1 0 18 0 9 9 0 1 0-18 0Z" fill="#FFFFFF" p-id="6664"></path><path d="M661.6 595.6c-8.2 0-15-6.8-15-15s6.8-15 15-15 15 6.8 15 15-6.8 15-15 15z m0-18c-1.6 0-3 1.4-3 3s1.4 3 3 3 3-1.4 3-3-1.4-3-3-3z" fill="#FFFFFF" p-id="6665"></path><path d="M600.6 531.6m-12 0a12 12 0 1 0 24 0 12 12 0 1 0-24 0Z" fill="#FFFFFF" p-id="6666"></path><path d="M600.6 549.6c-10 0-18-8-18-18s8-18 18-18 18 8 18 18-8 18-18 18z m0-24c-3.4 0-6 2.6-6 6s2.6 6 6 6 6-2.6 6-6-2.6-6-6-6z" fill="#FFA6D5" p-id="6667"></path><path d="M370.6 463.6m-12 0a12 12 0 1 0 24 0 12 12 0 1 0-24 0Z" fill="#FFFFFF" p-id="6668"></path><path d="M370.6 481.6c-10 0-18-8-18-18s8-18 18-18 18 8 18 18-8 18-18 18z m0-24c-3.4 0-6 2.6-6 6s2.6 6 6 6 6-2.6 6-6-2.6-6-6-6z" fill="#FFA6D5" p-id="6669"></path><path d="M590.2 456.2c5.2 4.6 0.4 10.8-0.8 13.8-1 3.2-7.8 5.8-13-0.6s0-4.6 0-10.2 8.6-7.8 13.8-3z" fill="#FFFFFF" p-id="6670"></path><path d="M583.8 479.4c-4.4 0-8.8-2.2-12-6.2-3-3.8-5.6-8.2-1.6-13.6 0 0 0.2-0.2 0.2-0.4v-0.2c0-4.6 2.8-8.6 7.2-10.4 5.4-2.4 12.2-1.2 16.8 3 7.8 6.8 3.2 15.8 1.4 19.2l-0.6 1.2c-1.2 3.4-4.6 6.2-8.8 7-1 0.2-1.8 0.4-2.6 0.4z m-3-14l0.2 0.2c1.4 1.6 2.4 1.8 3 1.8 0.2-0.6 0.6-1.2 1-2 2-4 1.6-4.4 1.2-4.8-1.4-1.2-3-1.2-3.8-0.8-0.2 2.4-0.8 4.2-1.6 5.6z" fill="#FFA6D5" p-id="6671"></path><path d="M479.4 280.2c1 0.8 0 2-0.2 2.6s-1.6 1-2.6-0.2 0-0.8 0-1.8 1.8-1.6 2.8-0.6z" fill="#E84091" p-id="6672"></path><path d="M478.2 289.4c-2.4 0-4.6-1-6.2-3-2.2-2.8-2.2-5.4-1.2-7.4 0.6-2 2.2-3.8 4.2-4.8 3-1.2 6.4-0.6 8.6 1.6 1.2 1.2 3.6 4.4 1.2 9.2 0 0 0-0.2 0.2-0.4-0.8 2.4-2.8 4-5.4 4.6-0.6 0.2-1 0.2-1.4 0.2z m-2.8-4.8c1.2 1 2.8 1.4 4.2 0.8 1-0.4 1.8-1.2 2.4-2.2 0.4-1.8 0-3.6-0.8-4.6l-0.2-0.2-1.6 1.6 1.4-1.8c-1-0.8-2.2-1.2-3.6-1-1.4 0.2-2.6 1.2-3.4 2.4-0.2 1.4 0 3.6 1.6 5z m-1.8-4v0z m9 0.2z" fill="#FFA6D5" p-id="6673"></path><path d="M563.4 178.2c1 0.8 0 2-0.2 2.6s-1.6 1-2.6-0.2 0-0.8 0-1.8c0.2-1.2 1.8-1.6 2.8-0.6z" fill="#E84091" p-id="6674"></path><path d="M562.2 187.4c-2.4 0-4.6-1-6.2-3-2.4-2.8-2.2-5.6-1-7.6 0.6-2.4 2.4-4.2 4.8-4.8 2.8-0.8 5.8-0.2 8 2 1.2 1.2 3.6 4.4 1.2 9.2-0.8 2.2-2.8 3.8-5.2 4.2h-1.6z m-2.8-4.8c1 1 2.6 1.2 4 0.8 1-0.4 2-1.2 2.6-2 0.2-0.6 0.2-1 0.2-1.6l-5.6-1h5.4c-0.2-0.8-0.4-1.6-0.8-2l-0.2-0.2-1.6 1.6 1.4-1.8c-1-0.8-2.2-1.2-3.6-1-1.4 0.2-2.6 1.2-3.4 2.4-0.2 1.2 0 3.4 1.6 4.8z m9.4 0.2v0z m-11.2-4.2s0 0.2-0.2 0.2c0.2 0 0.2 0 0.2-0.2z" fill="#FFA6D5" p-id="6675"></path><path d="M289.6 544.6m-1 0a1 1 0 1 0 2 0 1 1 0 1 0-2 0Z" fill="#FFFFFF" p-id="6676"></path><path d="M289.6 551.6c-3.8 0-7-3.2-7-7s3.2-7 7-7 7 3.2 7 7-3.2 7-7 7z m0-12c-2.8 0-5 2.2-5 5s2.2 5 5 5 5-2.2 5-5-2.2-5-5-5z" fill="#FFFFFF" p-id="6677"></path><path d="M572.6 291.6h-0.8c-3.2-0.4-5.6-3.2-5.2-6.4 0.4-6.4 5.2-63.2 37.6-65.6 9-0.6 16.6 3.2 20.6 10.4 4.2 7.8 3.8 18-1.4 25-4 5.6-11.8 7.4-18.6 9-3.6 0.8-7.2 1.6-9.4 2.8-14.8 8.2-17 19.2-17 19.6-0.4 3-3 5.2-5.8 5.2z m33.6-60h-1.2c-11 0.8-17.8 14.8-21.8 29 2-1.4 4-2.8 6.6-4.2 3.6-2 8.2-3 12.6-4 4.2-1 10-2.2 11.6-4.2 2.4-3.4 2.6-8.6 0.6-12.2-1.8-3-4.6-4.4-8.4-4.4z" fill="#2C3AC4" p-id="6678"></path><path d="M533 286.2c-1.6 0-3.2-0.6-4.4-1.8-3.8-3.8-35.8-37.2-19.6-58.4 4.6-6.2 11.4-8.8 18.4-7.4 7.2 1.6 13.4 7.8 15 14.8 1.4 6-1.8 11.6-4.6 16.8-1.4 2.4-2.6 5-3 6.6-2.8 12.6 2.4 19.2 2.6 19.4 2.2 2.4 1.8 6-0.6 8.2-0.8 1.2-2.2 1.8-3.8 1.8z m-9.2-56c-1.8 0-3.6 1-5 3-4.4 5.8-1.2 15.4 4 24l0.6-3c0.8-3.4 2.6-6.6 4.2-9.8 1.4-2.6 3.8-6.8 3.4-8.4-0.6-2.6-3.2-5.2-6-5.8h-1.2z" fill="#2C3AC4" p-id="6679"></path><path d="M436.4 267.6c-2.8 0-5.4-2-5.8-4.8 0-0.2-1.4-7.2-5.8-12.6-3-3.8-8-6.6-13.2-7.6-11.2-2-15.2-11-14-18.4 1.4-8.2 9.2-16 20.2-14.4 24 3.4 24.8 47 24.8 52 0 3-2.4 5.6-5.4 6-0.4-0.2-0.6-0.2-0.8-0.2z m-21.6-46.2c-3.8 0-5.2 2.8-5.4 4.6-0.4 2.4 1 4.2 4.2 4.6 4.6 0.8 9.2 2.8 13.2 5.4-2.2-7.6-5.8-13.8-10.8-14.6h-1.2z" fill="#2C3AC4" p-id="6680"></path><path d="M475.4 212.4c-0.6 0-1.2 0-1.8-0.4-3-1-4.6-4-4-7 0-0.2 2.4-10.8-0.4-21.4-1.8-7-7.2-14.4-14-19-12.2-8.2-12.2-20.6-7-28.6 5.8-9 18.6-14.2 31-6.6 27.6 17 4.2 72.8 1.6 79-0.8 2.6-3 4-5.4 4zM467 138c-4 0-7 2.4-8.6 4.8-1.4 2-3.6 7.2 3.6 12 7.4 5 13.4 12.4 17 20.2 3-14.6 3-29.6-5.8-35.2-2.4-1.2-4.4-1.8-6.2-1.8z" fill="#2C3AC4" p-id="6681"></path><path d="M771.4 246.2c-1.2 0-2.4-0.4-3.4-1.2-2.6-2-3.4-5.6-1.4-8.4l13.4-18.8c2-2.6 5.6-3.4 8.4-1.4s3.4 5.6 1.4 8.4l-13.4 18.8c-1.2 1.8-3.2 2.6-5 2.6zM726.2 237.6c-2.8 0-5.2-2-5.8-4.8l-4.8-22c-0.8-3.2 1.4-6.4 4.6-7.2 3.2-0.8 6.4 1.4 7.2 4.6l4.8 22c0.8 3.2-1.4 6.4-4.6 7.2-0.6 0.2-1 0.2-1.4 0.2zM797 282c-2.8 0-5.4-2-5.8-5-0.6-3.2 1.6-6.4 4.8-7l23.6-4.4c3.2-0.6 6.4 1.6 7 4.8 0.6 3.2-1.6 6.4-4.8 7l-23.6 4.4c-0.4 0.2-0.8 0.2-1.2 0.2z" fill="#2C3AC4" p-id="6682"></path><path d="M263.4 202.2c-2.4 0-4.6-1.4-5.6-3.8l-7.2-18.4c-1.2-3 0.4-6.6 3.4-7.8 3-1.2 6.6 0.4 7.8 3.4l7.2 18.4c1.2 3-0.4 6.6-3.4 7.8-0.8 0.2-1.4 0.4-2.2 0.4zM236.2 228.4c-0.8 0-1.6-0.2-2.4-0.4l-18-7.8c-3-1.4-4.4-4.8-3.2-7.8 1.4-3 4.8-4.4 7.8-3.2l18 7.8c3 1.4 4.4 4.8 3.2 7.8-0.8 2.2-3 3.6-5.4 3.6zM301.2 202.8c-0.8 0-1.6-0.2-2.4-0.4-3-1.4-4.4-4.8-3.2-7.8l7.8-18c1.4-3 4.8-4.4 7.8-3.2 3 1.4 4.4 4.8 3.2 7.8l-7.8 18c-0.8 2.2-3 3.6-5.4 3.6z" fill="#2C3AC4" p-id="6683"></path></svg>