<?xml version="1.0" standalone="no"?><!DOCTYPE svg PUBLIC "-//W3C//DTD SVG 1.1//EN" "http://www.w3.org/Graphics/SVG/1.1/DTD/svg11.dtd"><svg t="1639832027321" class="icon" viewBox="0 0 1024 1024" version="1.1" xmlns="http://www.w3.org/2000/svg" p-id="39702" xmlns:xlink="http://www.w3.org/1999/xlink" width="150" height="150"><defs><style type="text/css"></style></defs><path d="M726.16 405.93c0.32-4.72 0.48-9.39 0.48-14.05 0-59.18-23.05-114.82-64.89-156.67-41.85-41.85-97.49-64.89-156.67-64.89-59.18 0-114.82 23.05-156.67 64.89-41.85 41.85-64.89 97.49-64.89 156.67 0 4.66 0.16 9.33 0.48 14.05-111.05 4.32-200.04 96.01-200.04 208.1 0 114.83 93.43 208.26 208.26 208.26h425.74c114.83 0 208.26-93.42 208.26-208.26-0.01-112.09-89.01-203.78-200.06-208.1z m-8.21 372.36H292.21c-90.57 0-164.26-73.69-164.26-164.26s73.69-164.26 164.26-164.26h16.7c6.52 0 12.71-2.9 16.89-7.9s5.92-11.61 4.75-18.03c-2.04-11.24-3.04-21.69-3.04-31.95 0-97.91 79.65-177.56 177.56-177.56s177.56 79.65 177.56 177.56c0 10.26-0.99 20.71-3.04 31.95-1.17 6.42 0.57 13.02 4.75 18.03 4.18 5.01 10.37 7.9 16.89 7.9h16.7c90.57 0 164.26 73.69 164.26 164.26s-73.67 164.26-164.24 164.26z" fill="#fee3dd" p-id="39703"></path></svg>