<?xml version="1.0" standalone="no"?><!DOCTYPE svg PUBLIC "-//W3C//DTD SVG 1.1//EN" "http://www.w3.org/Graphics/SVG/1.1/DTD/svg11.dtd"><svg t="1640503595670" class="icon" viewBox="0 0 1024 1024" version="1.1" xmlns="http://www.w3.org/2000/svg" p-id="3515" width="80" height="80" xmlns:xlink="http://www.w3.org/1999/xlink"><defs><style type="text/css"></style></defs><path d="M519.757576 186.181818c-82.230303 0-161.357576 32.581818-219.280808 90.505051S209.454545 413.737374 208.937374 495.967677s32.581818 161.357576 90.50505 219.79798 137.050505 91.022222 219.280808 91.539394c171.183838 0.517172 310.30303-138.60202 310.820202-309.785859S691.458586 186.181818 519.757576 186.181818z" fill="#37A42F" p-id="3516"></path><path d="M518.723232 806.787879c171.183838 0.517172 310.30303-138.60202 310.820202-309.785859l-620.60606-1.034343c0 82.230303 32.581818 161.357576 90.50505 219.79798s137.050505 90.505051 219.280808 91.022222z m0 0" fill="#37A42F" p-id="3517"></path><path d="M518.723232 762.311111c70.335354 0 138.084848-27.927273 188.250505-77.575757s78.092929-117.39798 78.09293-187.733334l-531.652526-1.034343c0 70.335354 27.927273 138.084848 77.575758 188.250505 49.648485 49.648485 117.39798 78.092929 187.733333 78.092929z m0 0" fill="#FFFAD9" p-id="3518"></path><path d="M763.862626 497.00202c0 134.464646-109.640404 243.587879-244.10505 243.587879S276.169697 630.949495 276.686869 496.484848l487.175757 0.517172z m0 0" fill="#FF4F40" p-id="3519"></path><path d="M519.757576 230.658586c-70.335354 0-138.084848 27.927273-188.250505 77.575757S253.414141 425.632323 253.414141 495.967677l531.652526 1.034343c0-70.335354-27.927273-138.084848-77.575758-188.250505S590.092929 230.658586 519.757576 230.658586z m0 0" fill="#FFFAD9" p-id="3520"></path><path d="M276.169697 495.967677c0-134.464646 109.640404-243.587879 244.10505-243.587879 134.464646 0 243.587879 109.640404 243.070708 244.10505l-487.175758-0.517171z m487.175758 1.034343" fill="#FF4F40" p-id="3521"></path><path d="M440.113131 649.567677c-0.517172 3.620202-6.206061 6.723232-12.412121 6.723232-6.723232 0-11.894949-3.10303-12.412121-6.723232 0-4.137374 5.688889-15.515152 12.412121-15.515152 6.723232 0 12.412121 11.377778 12.412121 15.515152zM710.593939 505.276768c0.517172 2.585859-2.068687 5.171717-5.688888 6.723232-4.137374 1.551515-9.309091 1.551515-13.446465 0s-6.206061-4.137374-5.688889-6.723232c0-4.137374 5.688889-14.99798 11.894949-14.99798 6.206061 0 12.929293 10.860606 12.929293 14.99798zM434.941414 480.452525c0 4.137374-5.688889 7.240404-12.412121 7.240404-6.723232 0-12.412121-3.10303-12.412121-7.240404 0-4.137374 5.688889-14.99798 12.412121-14.99798 6.723232 0 12.412121 10.860606 12.412121 14.99798zM599.40202 411.668687c0.517172 2.585859-2.068687 5.171717-5.688889 6.723232-4.137374 1.551515-9.309091 1.551515-13.446464 0s-6.206061-4.137374-5.688889-6.723232c0-4.137374 5.688889-14.99798 12.412121-14.99798 6.723232 0 12.412121 11.377778 12.412121 14.99798zM358.4 504.759596c0.517172 2.585859-2.068687 5.171717-5.688889 6.723232-4.137374 1.551515-9.309091 1.551515-13.446465 0s-6.206061-4.137374-5.688888-6.723232c0-4.137374 5.688889-14.99798 12.412121-14.99798 6.723232 0 12.412121 10.860606 12.412121 14.99798zM532.169697 684.218182c0.517172 2.585859-2.068687 5.171717-5.688889 6.723232-4.137374 1.551515-9.309091 1.551515-13.446465 0s-6.206061-4.137374-5.688888-6.723232c0-4.137374 5.688889-14.99798 12.412121-14.99798 6.723232 0 12.412121 11.377778 12.412121 14.99798zM449.422222 566.820202c0.517172 2.585859-2.068687 5.171717-5.688889 6.723232s-9.309091 1.551515-13.446464 0-6.206061-4.137374-5.688889-6.723232c0-4.137374 5.688889-14.99798 12.412121-14.99798 6.723232 0 12.412121 11.377778 12.412121 14.99798zM379.086869 588.541414c-1.034343 3.10303-6.206061 5.688889-12.412122 5.688889s-11.377778-2.585859-12.412121-5.688889c0-4.137374 5.688889-14.99798 12.412121-14.99798 7.240404 0 12.412121 11.377778 12.412122 14.99798zM689.907071 589.058586c0.517172 2.585859-2.068687 5.171717-5.688889 6.723232-4.137374 1.551515-9.309091 1.551515-13.446465 0s-6.206061-4.137374-5.688889-6.723232c0-4.137374 5.688889-14.99798 12.412121-14.99798 6.723232 0 12.412121 11.377778 12.412122 14.99798zM689.907071 421.494949c0 4.137374-5.688889 7.240404-12.412122 7.240405-6.723232 0-12.412121-3.10303-12.412121-7.240405 0-4.137374 5.688889-15.515152 12.412121-15.515151 6.723232 0 12.412121 11.377778 12.412122 15.515151zM379.60404 420.977778c-0.517172 3.620202-6.206061 6.723232-12.412121 6.723232-6.723232 0-11.894949-3.10303-12.412121-6.723232 0-4.137374 5.688889-15.515152 12.412121-15.515152 6.723232 0 12.412121 11.377778 12.412121 15.515152zM498.036364 397.705051c0.517172 2.585859-2.068687 5.171717-5.688889 6.723232-4.137374 1.551515-9.309091 1.551515-13.446465 0s-6.206061-4.137374-5.688889-6.723232c0-4.137374 5.688889-14.99798 12.412121-14.99798 6.723232 0 12.412121 11.377778 12.412122 14.99798zM618.537374 571.991919c0 4.137374-5.688889 7.240404-12.412121 7.240404-6.723232 0-12.412121-3.10303-12.412122-7.240404 0-4.137374 5.688889-14.99798 12.412122-14.99798 6.723232 0 12.412121 10.860606 12.412121 14.99798zM537.341414 608.711111c0.517172 2.585859-2.068687 5.171717-5.688889 6.723232s-9.309091 1.551515-13.446464 0-6.206061-4.137374-5.688889-6.723232c0-4.137374 5.688889-14.99798 12.412121-14.99798 6.723232 0 12.412121 10.860606 12.412121 14.99798zM642.844444 480.452525c0.517172 2.585859-2.068687 5.171717-5.688888 6.723233-4.137374 1.551515-9.309091 1.551515-13.446465 0s-6.206061-4.137374-5.688889-6.723233c0-4.137374 5.688889-14.99798 12.412121-14.99798 6.723232 0 12.412121 11.377778 12.412121 14.99798zM589.575758 521.309091c0 4.137374-5.688889 7.240404-12.412122 7.240404-6.723232 0-12.412121-3.10303-12.412121-7.240404 0-4.137374 5.688889-14.99798 12.412121-14.99798 6.723232 0 12.412121 11.377778 12.412122 14.99798zM502.173737 521.309091c0 4.137374-5.688889 7.240404-12.412121 7.240404-6.723232 0-12.412121-3.10303-12.412121-7.240404 0-4.137374 5.688889-14.99798 12.412121-14.99798 6.723232 0 12.412121 10.860606 12.412121 14.99798zM545.616162 453.042424c0.517172 2.585859-2.068687 5.171717-5.688889 6.723233-4.137374 1.551515-9.309091 1.551515-13.446465 0s-6.206061-4.137374-5.688889-6.723233c0-4.137374 5.688889-14.99798 12.412121-14.99798 6.723232-0.517172 12.412121 10.860606 12.412122 14.99798zM533.20404 329.955556c0.517172 2.585859-2.068687 5.171717-5.688888 6.723232s-9.309091 1.551515-13.446465 0-6.206061-4.137374-5.688889-6.723232c0-4.137374 5.688889-14.99798 12.412121-14.99798 6.723232-0.517172 12.412121 10.860606 12.412121 14.99798zM639.224242 656.290909c0 4.137374-5.688889 7.240404-12.412121 7.240404-6.723232 0-12.412121-3.10303-12.412121-7.240404 0-4.137374 5.688889-15.515152 12.412121-15.515151 6.723232 0 12.412121 11.377778 12.412121 15.515151zM639.741414 357.882828c0.517172 2.585859-2.068687 5.171717-5.688889 6.723233-4.137374 1.551515-9.309091 1.551515-13.446464 0s-6.206061-4.137374-5.688889-6.723233c0-4.137374 5.688889-14.99798 12.412121-14.99798 6.723232 0 12.412121 10.860606 12.412121 14.99798zM431.321212 358.4c-1.034343 3.10303-6.206061 5.688889-12.412121 5.688889s-11.377778-2.585859-12.412121-5.688889c0-4.137374 5.688889-14.99798 12.412121-14.99798 7.240404 0 12.412121 10.860606 12.412121 14.99798z" fill="#333333" p-id="3522"></path></svg>