<?xml version="1.0" standalone="no"?><!DOCTYPE svg PUBLIC "-//W3C//DTD SVG 1.1//EN" "http://www.w3.org/Graphics/SVG/1.1/DTD/svg11.dtd"><svg t="1639830311763" class="icon" viewBox="0 0 1024 1024" version="1.1" xmlns="http://www.w3.org/2000/svg" p-id="15903" xmlns:xlink="http://www.w3.org/1999/xlink" width="150" height="150"><defs><style type="text/css"></style></defs><path d="M581.843962 598.64698m-401.19516 0a401.19516 401.19516 0 1 0 802.390319 0 401.19516 401.19516 0 1 0-802.390319 0Z" fill="#C1D3F4" p-id="15904"></path><path d="M509.75139 526.554409m-401.195159 0a401.19516 401.19516 0 1 0 802.390319 0 401.19516 401.19516 0 1 0-802.390319 0Z" fill="#FFD7E3" p-id="15905"></path><path d="M834.167961 1023.993151H202.637036A88.3134 88.3134 0 0 1 113.242248 936.040214v-355.055914a13.697589 13.697589 0 0 1 13.697588-13.697588H906.260533a13.697589 13.697589 0 0 1 13.697588 13.697588v355.055914A88.3134 88.3134 0 0 1 834.167961 1023.993151zM141.358351 594.321426v341.718788a61.278686 61.278686 0 0 0 61.278685 60.918223H834.167961a61.278686 61.278686 0 0 0 61.278686-60.918223v-341.718788zM102.428362 457.706003h-4.686017a14.778977 14.778977 0 0 1-7.56972-7.209257L41.149676 345.241592A14.058051 14.058051 0 0 1 49.079859 325.776598L340.333848 193.847192a12.976663 12.976663 0 0 1 17.66268 6.488331 13.337126 13.337126 0 0 1-6.488332 18.023143L72.509945 346.32298l36.046286 80.022755 684.879428-313.602686-36.046286-80.022754-286.928434 131.20848a13.337126 13.337126 0 0 1-17.66268-6.848794 12.976663 12.976663 0 0 1 6.488331-17.66268L757.389373 1.360026a13.337126 13.337126 0 0 1 18.023143 6.488332l47.94156 104.534228a13.337126 13.337126 0 0 1-6.848795 18.023143l-708.309513 324.416571a14.778977 14.778977 0 0 1-5.767406 2.883703zM455.681962 566.926249a13.697589 13.697589 0 0 1-12.255737-14.418515 324.416571 324.416571 0 0 1 155.719954-244.754279 14.058051 14.058051 0 0 1 18.383606 5.406943 13.697589 13.697589 0 0 1-5.406943 18.383605 301.707411 301.707411 0 0 0-144.185143 223.126509 13.697589 13.697589 0 0 1-12.255737 12.255737z" fill="#231815" p-id="15906"></path><path d="M579.320722 1023.993151H455.681962a13.337126 13.337126 0 0 1-13.337126-13.337125V580.9843a13.697589 13.697589 0 0 1 13.337126-13.697588h123.63876a13.697589 13.697589 0 0 1 13.697588 13.697588V1010.656026a13.337126 13.337126 0 0 1-13.697588 13.337125z m-108.138857-27.034714h96.604045V594.321426h-98.40636zM396.926516 313.52086a13.337126 13.337126 0 0 1-11.895274-7.56972L338.891996 209.707558a13.337126 13.337126 0 0 1 0-10.453423 15.499903 15.499903 0 0 1 7.209257-7.930183l113.185337-51.906651a12.976663 12.976663 0 0 1 10.453423 0 14.778977 14.778977 0 0 1 7.56972 7.209257l44.336932 96.243582a13.697589 13.697589 0 0 1-6.488332 18.023143L401.612533 312.439472a14.778977 14.778977 0 0 1-4.686017 1.081388zM369.170876 210.428483l36.046286 72.092572 87.952937-40.37184-33.162583-72.092572zM788.749641 534.845054h-2.162777a14.058051 14.058051 0 0 1-10.813885-9.732497l-28.837029-99.127285-98.045897-32.441657a13.697589 13.697589 0 0 1-9.372034-10.813886 14.418514 14.418514 0 0 1 5.767405-13.337126l85.79016-58.03452V207.905243a12.976663 12.976663 0 0 1 7.56972-11.895274 12.6162 12.6162 0 0 1 14.058052 0L834.167961 260.53282l98.766823-31.360268a13.337126 13.337126 0 0 1 13.697589 3.604628 12.976663 12.976663 0 0 1 2.883703 13.697589l-36.046286 97.324971 60.55776 83.987846a13.697589 13.697589 0 0 1 0 14.418514 12.6162 12.6162 0 0 1-12.255737 7.209257l-103.45284-3.244165-60.918223 83.26692a14.058051 14.058051 0 0 1-8.651109 5.406942z m-105.615617-158.243194l78.941366 25.953326a14.058051 14.058051 0 0 1 9.011572 9.011571l23.069622 80.022755 49.383412-67.046092a14.778977 14.778977 0 0 1 11.174348-5.767405l82.906457 2.52324-48.302022-67.406555a13.697589 13.697589 0 0 1-1.802315-12.255737l28.116103-78.22044-79.301828 25.2324a15.13944 15.13944 0 0 1-12.255738-2.162777L758.470762 235.30042V318.56734a13.697589 13.697589 0 0 1-5.767406 11.174349z m61.278686-58.03452zM523.448979 546.379866a12.6162 12.6162 0 0 1-9.011572-3.604629 13.697589 13.697589 0 0 1 0-19.104531 292.335377 292.335377 0 0 1 149.592086-72.092571 14.058051 14.058051 0 0 1 16.220829 10.453422 13.697589 13.697589 0 0 1-10.453423 15.860366A272.50992 272.50992 0 0 0 533.541939 542.054312a14.058051 14.058051 0 0 1-10.09296 4.325554z" fill="#231815" p-id="15907"></path><path d="M419.275213 165.010163c-26.313789 0-45.778783-32.441657-45.778783-76.057662s19.464994-75.6972 45.778783-75.6972 45.778783 32.441657 45.778783 75.6972-19.825457 76.057663-45.778783 76.057662z m0-124.720148c-6.848794 0-18.744069 18.383606-18.744068 48.662486s11.895274 49.022949 18.744068 49.022948 18.383606-18.383606 18.383606-49.022948-11.895274-48.662486-18.383606-48.662486z" fill="#231815" p-id="15908"></path><path d="M376.740596 181.591455a64.522851 64.522851 0 0 1-17.66268-2.883703 111.743486 111.743486 0 0 1-43.616006-27.75564 111.743486 111.743486 0 0 1-27.75564-43.616006A40.011377 40.011377 0 0 1 293.473676 64.801489c18.023143-18.023143 56.592669-8.290646 86.150623 21.267309a110.662097 110.662097 0 0 1 27.75564 43.255543A41.092766 41.092766 0 0 1 401.612533 172.21942a36.046286 36.046286 0 0 1-24.871937 9.372035zM319.427002 82.103706a9.372034 9.372034 0 0 0-6.127869 0s-2.52324 7.209257 0 15.499903a84.348308 84.348308 0 0 0 20.906846 32.441657A84.348308 84.348308 0 0 0 365.566248 152.754426c8.290646 2.883703 13.697589 2.162777 15.499902 0s2.52324-7.56972 0-15.499903a85.429697 85.429697 0 0 0-21.267308-32.441657 69.929794 69.929794 0 0 0-40.37184-22.70916z" fill="#231815" p-id="15909"></path></svg>