<?xml version="1.0" standalone="no"?><!DOCTYPE svg PUBLIC "-//W3C//DTD SVG 1.1//EN" "http://www.w3.org/Graphics/SVG/1.1/DTD/svg11.dtd"><svg t="1640504197013" class="icon" viewBox="0 0 1024 1024" version="1.1" xmlns="http://www.w3.org/2000/svg" p-id="4152" width="80" height="80" xmlns:xlink="http://www.w3.org/1999/xlink"><defs><style type="text/css"></style></defs><path d="M532.169697 808.856566c-13.446465 0-47.062626-1.551515-51.717172-2.585859-68.783838-11.894949-130.327273-48.09697-169.115151-99.29697l-1.034344-1.551515c-1.551515-2.068687-2.585859-3.620202-4.137373-5.688889l-1.551516-2.585858c-1.034343-1.551515-2.068687-3.620202-3.620202-5.171717 0 0-1.551515-2.068687-2.068686-3.103031-1.034343-1.551515-2.068687-3.620202-3.103031-5.171717-1.034343-1.551515-1.551515-2.585859-2.068687-3.620202-1.034343-1.551515-1.551515-3.10303-2.585858-5.171717-0.517172-1.034343-1.034343-2.585859-2.068687-3.620202-1.034343-1.551515-1.551515-3.10303-2.585859-5.171717-0.517172-1.551515-1.034343-2.585859-1.551515-4.137374-0.517172-1.551515-1.551515-3.10303-2.068687-4.654545-0.517172-1.551515-1.034343-2.585859-1.551515-4.137374l-1.551515-4.654546c-0.517172-1.551515-1.034343-3.10303-1.551515-4.137373l-1.551515-4.654546c-0.517172-1.551515-1.034343-3.10303-1.034344-4.137374-0.517172-2.068687-1.034343-3.620202-1.551515-5.171717-0.517172-1.551515-0.517172-2.585859-1.034343-4.137374l-0.517172-1.551515c-0.517172-1.034343-0.517172-2.585859-1.034343-3.620202-0.517172-1.551515-0.517172-2.585859-0.517172-4.137373l-0.517172-2.068687c0-1.034343-0.517172-2.068687-0.517172-3.103031 0-1.551515-0.517172-3.10303-0.517171-4.654545l-0.517172-2.585859c0-1.034343 0-2.068687-0.517172-2.585858 0-2.068687-0.517172-3.620202-0.517172-5.688889 0 0-0.517172-3.620202-0.517171-4.137374V579.232323v-9.826262c0-0.517172 0.517172-4.137374 0.517171-4.137374 0-2.068687 0.517172-4.137374 0.517172-5.688889 0-1.034343 0-2.068687 0.517172-2.585859l0.517172-2.585858c0-1.551515 0.517172-3.10303 0.517171-4.654546 0-1.034343 0.517172-2.068687 0.517172-3.10303l1.034344-3.620202c0-1.551515 0.517172-2.585859 0.517171-4.137374 0-1.034343 0.517172-2.585859 1.034344-3.620202v-1.034343c0.517172-2.068687 0.517172-3.620202 1.034343-4.654546l1.551515-4.654545 1.551515-4.654546 1.551516-4.654545c0.517172-1.551515 1.034343-3.10303 1.551515-4.137374l1.551515-4.654545c0.517172-1.551515 1.034343-2.585859 1.551515-4.137374 0.517172-1.551515 1.551515-3.10303 2.068687-4.654545 0.517172-1.551515 1.034343-2.585859 1.551515-4.137374 0.517172-1.551515 1.551515-3.10303 2.585859-5.171717 0.517172-1.034343 1.034343-2.585859 2.068686-3.620202 1.034343-1.551515 1.551515-3.10303 2.585859-5.171717 0.517172-1.034343 1.034343-2.068687 2.068687-3.620202 1.034343-1.551515 2.068687-3.620202 3.10303-5.171718l2.068687-3.10303c1.034343-1.551515 2.068687-3.620202 3.620202-5.171717l1.551515-2.585859c1.551515-2.068687 2.585859-3.620202 4.137374-5.688889l1.034343-1.551515c38.787879-51.2 100.331313-86.884848 169.115152-99.296969 4.654545-1.034343 24.824242-3.10303 50.165657-3.103031 16.549495 0 48.614141 2.585859 53.268686 3.103031 68.783838 11.894949 130.327273 48.09697 169.115152 99.296969l1.034343 1.551515c1.551515 2.068687 2.585859 3.620202 4.137374 5.688889l1.551515 2.585859c1.034343 1.551515 2.068687 3.620202 3.620202 5.171717l2.068687 3.10303c1.034343 1.551515 2.068687 3.620202 3.10303 5.171718l2.068687 3.620202c1.034343 1.551515 1.551515 3.10303 2.585859 5.171717 0.517172 1.034343 1.034343 2.585859 2.068687 3.620202 1.034343 1.551515 1.551515 3.10303 2.585858 5.171717 0.517172 1.551515 1.034343 2.585859 1.551515 4.137374 0.517172 1.551515 1.551515 3.10303 2.068687 4.654545 0.517172 1.551515 1.034343 2.585859 1.551516 4.137374 0.517172 1.551515 1.034343 3.10303 2.068686 4.654545 0.517172 1.551515 1.034343 2.585859 1.551516 4.137374 0.517172 2.068687 1.034343 3.620202 1.551515 5.171717l1.551515 4.654546v1.034343c0.517172 1.551515 0.517172 2.585859 1.034343 4.137374 0.517172 1.551515 0.517172 2.585859 1.034344 4.137374l0.517171 1.551515c0.517172 1.551515 0.517172 2.585859 1.034344 3.620202 0.517172 1.551515 0.517172 3.10303 1.034343 4.654545l0.517172 1.551515c0 1.034343 0.517172 2.068687 0.517172 3.620202 0 1.551515 0.517172 3.10303 0.517171 4.654546 0 0 0.517172 4.654545 0.517172 5.171717 0 2.068687 0.517172 3.620202 0.517172 5.688889 0 0 0.517172 3.620202 0.517172 4.137374V592.161616c0 0.517172-0.517172 4.137374-0.517172 4.137374 0 2.068687-0.517172 4.137374-0.517172 5.688889 0 1.034343-0.517172 4.137374-0.517172 4.137374v1.034343c0 1.551515-0.517172 3.10303-0.517171 4.654545 0 1.034343-0.517172 2.068687-0.517172 3.620202l-0.517172 1.551516c-0.517172 1.551515-0.517172 3.10303-1.034343 4.654545 0 1.551515-0.517172 2.585859-1.034344 4.137374v1.034343c-0.517172 2.068687-0.517172 3.620202-1.034343 4.654546-0.517172 1.551515-0.517172 2.585859-1.034343 4.137373v1.034344l-1.551516 4.654545-1.551515 4.654546c-0.517172 1.551515-1.034343 3.10303-1.551515 4.137373-0.517172 1.551515-1.034343 3.10303-2.068687 4.654546-0.517172 1.551515-1.034343 2.585859-1.551515 4.137374-0.517172 1.551515-1.551515 3.10303-2.068687 4.654545-0.517172 1.551515-1.034343 2.585859-1.551515 4.137374-0.517172 1.551515-1.551515 3.10303-2.585859 5.171717-0.517172 1.034343-1.034343 2.585859-2.068686 3.620202-1.034343 1.551515-1.551515 3.10303-2.585859 5.171717-0.517172 1.034343-1.034343 2.068687-2.068687 3.620202-1.034343 1.551515-2.068687 3.620202-3.10303 5.171717l-2.068687 3.103031c-1.034343 1.551515-2.068687 3.620202-3.620202 5.171717l-1.551515 2.585858c-1.551515 2.068687-2.585859 3.620202-4.137374 5.688889l-1.034343 1.551516c-38.787879 51.2-100.331313 86.884848-169.115152 99.296969-5.688889-1.034343-39.305051 1.034343-52.751515 1.034344z" fill="#F27108" p-id="4153"></path><path d="M530.10101 386.327273c-117.915152 0.517172-219.280808 79.127273-229.624242 178.424242-0.517172 4.654545-1.034343 9.826263-1.034344 14.99798s0.517172 10.343434 1.034344 14.99798c10.343434 99.29697 111.709091 177.907071 229.624242 178.424242h4.137374c117.915152-1.034343 218.763636-79.127273 229.624242-178.424242 0.517172-4.654545 1.034343-9.826263 1.034344-15.515152 0-5.171717-0.517172-10.343434-1.034344-15.515151-10.860606-99.29697-111.709091-177.389899-229.624242-178.424243h-2.068687l-2.068687 1.034344z" fill="#FF9D00" p-id="4154"></path><path d="M524.929293 437.010101c-38.787879 0-68.266667-23.789899-68.783838-24.307071-2.585859-2.068687-4.137374-5.688889-4.137374-8.274747s1.034343-5.171717 3.10303-6.723232c3.10303-2.585859 6.723232-4.137374 10.860606-4.137374 3.620202 0 6.723232 1.034343 9.826263 3.620202 0.517172 0.517172 14.480808 11.377778 32.581818 15.515151 5.688889 1.551515 11.377778 2.068687 17.066667 2.068687 14.99798 0 27.927273-5.688889 40.339394-17.066666 3.10303-2.585859 6.723232-4.137374 10.860606-4.137374 3.10303 0 6.723232 1.034343 9.309091 2.585858 2.585859 2.068687 3.620202 4.654545 4.137373 7.757576 0 2.585859-1.034343 5.688889-3.10303 7.757576-16.549495 14.99798-35.167677 23.272727-56.371717 25.341414H524.929293z" fill="#167203" p-id="4155"></path><path d="M520.274747 428.735354c-2.585859 0-5.171717-0.517172-7.240404-2.068687-3.10303-2.068687-5.171717-4.654545-5.688888-8.274748-1.034343-3.620202 0-7.757576 2.068686-10.343434 37.753535-59.474747 96.193939-92.056566 127.741415-109.640404l1.551515-1.034344 7.757575-4.137373 0.517172-2.585859c0.517172-3.620202 2.585859-6.723232 5.171717-8.274747 2.068687-1.551515 4.654545-2.068687 7.240404-2.068687h2.585859c11.894949 2.068687 15.515152 9.826263 16.549495 13.963636 2.068687 10.860606-6.723232 17.066667-27.410101 27.927273l-1.551515 1.034343c-28.961616 16.032323-83.264646 45.511111-117.39798 100.331313-1.551515 2.068687-6.206061 5.171717-11.89495 5.171718z" fill="#167203" p-id="4156"></path><path d="M652.153535 678.012121c-1.034343-0.517172-2.585859-1.034343-3.620202-1.551515-5.171717-3.10303-5.171717-8.791919-1.034343-12.929293 2.585859-2.068687 62.577778-52.234343 29.995959-121.018182-2.068687-4.654545 1.034343-9.826263 7.757576-11.377777 6.206061-1.551515 13.446465 1.034343 15.515152 5.688888 37.236364 79.644444-32.064646 137.050505-35.167677 139.119192-3.10303 2.585859-8.791919 3.620202-13.446465 2.068687z m0 0M691.458586 507.862626c3.10303-7.757576-0.517172-16.549495-8.274748-20.169697-7.757576-3.10303-16.549495 0.517172-20.169697 8.274748-2.068687 5.171717-1.551515 10.860606 2.068687 14.99798 3.10303 4.137374 8.791919 6.723232 13.963637 6.20606 5.688889-0.517172 10.343434-4.137374 12.412121-9.309091z m0 0" fill="#FFFFFF" p-id="4157"></path><path d="M534.755556 370.294949c-1.551515 9.826263-10.860606 16.549495-20.686869 16.032324-100.331313-11.377778-135.49899-106.537374-141.187879-155.151515l-0.517172-8.79192c-0.517172-4.654545 1.551515-8.791919 4.654546-11.894949 3.10303-3.10303 7.757576-4.137374 12.412121-3.10303l7.240404 2.068686c155.151515 43.959596 139.119192 159.806061 138.084849 160.840404z" fill="#60B71C" p-id="4158"></path></svg>