<?xml version="1.0" standalone="no"?><!DOCTYPE svg PUBLIC "-//W3C//DTD SVG 1.1//EN" "http://www.w3.org/Graphics/SVG/1.1/DTD/svg11.dtd"><svg t="1637385765978" class="icon" viewBox="0 0 1024 1024" version="1.1" xmlns="http://www.w3.org/2000/svg" p-id="2410" xmlns:xlink="http://www.w3.org/1999/xlink" width="200" height="200"><defs><style type="text/css"></style></defs><path d="M221.866667 870.4h-6.826667C211.626667 866.986667 68.266667 812.373333 68.266667 580.266667 68.266667 337.92 453.973333 187.733333 665.6 187.733333c221.866667 0 348.16 170.666667 354.986667 177.493334 3.413333 6.826667 3.413333 17.066667 0 23.893333l-23.893334 20.48 20.48 20.48c6.826667 6.826667 6.826667 13.653333 3.413334 20.48-3.413333 6.826667-119.466667 177.493333-252.586667 177.493333H648.533333c-10.24 0-17.066667-6.826667-17.066666-17.066666s6.826667-17.066667 17.066666-17.066667h119.466667c98.986667 0 191.146667-116.053333 215.04-150.186667l-23.893333-23.893333c-6.826667-6.826667-6.826667-17.066667 0-23.893333l23.893333-23.893334c-30.72-37.546667-146.773333-153.6-317.44-153.6C443.733333 221.866667 102.4 375.466667 102.4 580.266667c0 211.626667 122.88 256 126.293333 256 10.24 3.413333 13.653333 13.653333 10.24 20.48-3.413333 10.24-10.24 13.653333-17.066666 13.653333z" fill="#ffffff" p-id="2411"></path><path d="M563.2 699.733333c-6.826667 0-13.653333-3.413333-17.066667-10.24-3.413333-6.826667 0-13.653333 3.413334-17.066666 27.306667-27.306667-44.373333-122.88-102.4-180.906667-6.826667-6.826667-6.826667-17.066667 0-23.893333 6.826667-6.826667 17.066667-6.826667 23.893333 0 23.893333 23.893333 116.053333 119.466667 116.053333 187.733333 40.96-34.133333 54.613333-136.533333 58.026667-177.493333 0-10.24 6.826667-17.066667 17.066667-17.066667s17.066667 10.24 17.066666 17.066667c3.413333 23.893333-13.653333 221.866667-116.053333 221.866666zM733.866667 529.066667c-3.413333 0-10.24-3.413333-13.653334-6.826667 0 0-37.546667-40.96-37.546666-129.706667 0-98.986667 44.373333-102.4 51.2-102.4 10.24 0 17.066667 6.826667 17.066666 17.066667s-6.826667 17.066667-13.653333 17.066667c0 0-20.48 10.24-20.48 68.266666 0 75.093333 30.72 105.813333 30.72 109.226667 6.826667 6.826667 6.826667 17.066667 0 23.893333-6.826667 3.413333-10.24 3.413333-13.653333 3.413334z" fill="#ffffff" p-id="2412"></path><path d="M392.533333 1006.933333c-3.413333 0-6.826667 0-10.24-3.413333-34.133333-23.893333-75.093333-34.133333-112.64-47.786667-51.2-17.066667-102.4-30.72-143.36-75.093333C61.44 815.786667 0 733.866667 0 580.266667c0-139.946667 85.333333-245.76 133.12-296.96 6.826667-6.826667 17.066667-6.826667 23.893333 0 6.826667 6.826667 6.826667 17.066667 0 23.893333C112.64 354.986667 34.133333 450.56 34.133333 580.266667c0 136.533333 44.373333 208.213333 116.053334 276.48 34.133333 34.133333 81.92 51.2 129.706666 64.853333 23.893333 6.826667 47.786667 13.653333 68.266667 23.893333-3.413333-10.24-6.826667-23.893333-6.826667-40.96 0-30.72 13.653333-58.026667 37.546667-81.92 30.72-27.306667 47.786667-88.746667 58.026667-133.12-54.613333 47.786667-133.12 109.226667-163.84 109.226667-47.786667 0-102.4-75.093333-102.4-136.533333 0-64.853333 71.68-170.666667 153.6-170.666667 47.786667 0 105.813333 27.306667 150.186666 47.786667 20.48 10.24 47.786667 20.48 54.613334 20.48 10.24 0 17.066667 6.826667 17.066666 17.066666s-6.826667 17.066667-17.066666 17.066667c-13.653333 0-34.133333-10.24-68.266667-23.893333-40.96-20.48-95.573333-44.373333-136.533333-44.373334-61.44 0-119.466667 92.16-119.466667 136.533334 0 47.786667 44.373333 102.4 68.266667 102.4 20.48 0 105.813333-68.266667 177.493333-133.12 6.826667-3.413333 13.653333-6.826667 20.48-3.413334 6.826667 3.413333 10.24 10.24 10.24 17.066667s-13.653333 143.36-75.093333 201.386667c-61.44 58.026667-6.826667 119.466667 0 126.293333 6.826667 6.826667 6.826667 17.066667 0 23.893333-3.413333 6.826667-10.24 10.24-13.653334 10.24z" fill="#ffffff" p-id="2413"></path><path d="M221.866667 358.4c-3.413333 0-6.826667 0-10.24-3.413333C174.08 327.68 68.266667 256 17.066667 256c-6.826667 0-13.653333-3.413333-17.066667-10.24 0-6.826667 0-13.653333 3.413333-20.48C109.226667 119.466667 368.64 17.066667 488.106667 17.066667c153.6 3.413333 221.866667 174.08 225.28 180.906666 3.413333 10.24 0 17.066667-10.24 20.48-10.24 3.413333-17.066667 0-20.48-10.24 0 0-61.44-157.013333-194.56-160.426666-102.4 0-324.266667 85.333333-436.906667 177.493333 71.68 20.48 163.84 88.746667 177.493333 98.986667 6.826667 6.826667 10.24 17.066667 3.413334 23.893333 0 6.826667-3.413333 10.24-10.24 10.24z" fill="#ffffff" p-id="2414"></path><path d="M358.4 290.133333c-3.413333 0-10.24 0-13.653333-3.413333-27.306667-30.72-163.84-95.573333-215.04-116.053333-10.24-6.826667-13.653333-13.653333-10.24-23.893334 6.826667-10.24 13.653333-13.653333 23.893333-10.24 20.48 6.826667 187.733333 81.92 228.693333 122.88 6.826667 6.826667 6.826667 17.066667 0 23.893334-3.413333 6.826667-10.24 6.826667-13.653333 6.826666zM563.2 221.866667c-6.826667 0-13.653333-3.413333-17.066667-10.24-40.96-92.16-208.213333-126.293333-208.213333-126.293334-10.24-3.413333-13.653333-10.24-13.653333-20.48 3.413333-10.24 10.24-13.653333 20.48-13.653333 6.826667 0 184.32 37.546667 235.52 146.773333 3.413333 10.24 0 17.066667-6.826667 23.893334h-10.24z" fill="#ffffff" p-id="2415"></path><path d="M853.333333 392.533333m-34.133333 0a34.133333 34.133333 0 1 0 68.266667 0 34.133333 34.133333 0 1 0-68.266667 0Z" fill="#ffffff" p-id="2416"></path></svg>