<?xml version="1.0" standalone="no"?><!DOCTYPE svg PUBLIC "-//W3C//DTD SVG 1.1//EN" "http://www.w3.org/Graphics/SVG/1.1/DTD/svg11.dtd"><svg t="1637387468256" class="icon" viewBox="0 0 1024 1024" version="1.1" xmlns="http://www.w3.org/2000/svg" p-id="8776" width="48" height="48" xmlns:xlink="http://www.w3.org/1999/xlink"><defs><style type="text/css"></style></defs><path d="M99.730286 788.041143h824.539428c66.358857 0 99.730286-31.817143 99.730286-99.712V243.638857c0-67.894857-33.371429-99.712-99.730286-99.712H99.730286C33.353143 143.908571 0 175.725714 0 243.638857v444.690286c0 67.894857 33.371429 99.712 99.730286 99.712z m1.152-62.464c-26.386286 0-38.4-10.861714-38.4-38.034286V244.809143c0-27.556571 12.013714-38.4 38.4-38.4h822.217143c26.788571 0 38.418286 10.843429 38.418285 38.4V687.542857c0 27.172571-11.629714 38.034286-38.4 38.034286z m521.124571-344.173714c18.614857-5.046857 24.448-8.941714 24.448-31.451429V273.92c0-14.738286-5.046857-21.339429-25.6-16.274286l-113.700571 28.306286c-19.017143 4.662857-23.296 8.539429-23.296 31.451429v174.994285c0 17.060571-1.536 20.169143-20.937143 25.6l-35.712 9.325715c-35.291429 9.307429-65.188571 30.244571-65.188572 68.278857 0 32.987429 24.832 57.051429 64.036572 57.051428 55.478857 0 93.110857-39.972571 93.110857-96.237714v-133.101714c0-14.354286 3.108571-18.230857 12.032-20.169143z m172.269714 514.505142c0-20.169143-16.274286-36.461714-36.077714-36.461714h-493.165714c-19.803429 0-35.712 16.274286-35.712 36.461714s15.908571 36.48 35.693714 36.48h493.165714a36.352 36.352 0 0 0 36.096-36.48z" p-id="8777" fill="#ffffff"></path></svg>